<svg xmlns="http://www.w3.org/2000/svg" xml:space="preserve" width="84.969" height="99.746" viewBox="0 0 22.481 26.391"><defs><filter id="b" width="1.051" height="1.058" x="-.025" y="-.029" style="color-interpolation-filters:sRGB"><feGaussianBlur stdDeviation=".14"/></filter><filter id="a" width="1.203" height="1.231" x="-.101" y="-.116" style="color-interpolation-filters:sRGB"><feGaussianBlur stdDeviation=".558"/></filter><filter id="d" width="1.033" height="1.147" x="-.017" y="-.074" style="color-interpolation-filters:sRGB"><feGaussianBlur stdDeviation=".102"/></filter><filter id="c" width="1.132" height="1.59" x="-.066" y="-.295" style="color-interpolation-filters:sRGB"><feGaussianBlur stdDeviation=".41"/></filter><filter id="f" width="1.064" height="1.064" x="-.032" y="-.032" style="color-interpolation-filters:sRGB"><feGaussianBlur stdDeviation=".206"/></filter><filter id="e" width="1.226" height="1.226" x="-.113" y="-.113" style="color-interpolation-filters:sRGB"><feGaussianBlur stdDeviation=".825"/></filter></defs><g transform="translate(-12.066 -83.68)"><path d="M17.955 100.694c-.623-.082-1.213-.535-1.434-1.1-.144-.37-.133.06-.14-5.168-.008-5.344.026-4.271.027-4.85.001-.578 1.16-.609 1.174.02.014.628.012 4.7.012 4.7l.011 4.7.05.108c.07.15.213.287.35.334.103.035.567.038 5.534.038 3.877 0 5.456.007 5.545.026.173.036.334.128.406.233.136.196.156.43.055.645-.114.212-.332.279-.438.308-.107.03-5.477.022-5.477.022-3.043.002-5.597-.005-5.675-.016zm2.82-2.493a.383.383 0 0 1-.224-.19c-.033-.06-.04-.173-.047-.756l-.007-.686h-.08a.551.551 0 0 1-.454-.188c-.18-.186-.232-.246-.271-.408-.076-.32-.008-1.794-.008-1.794-.005-1.26.001-1.835.02-1.93.065-.34.393-.625.718-.625h.078l.001-.616c.001-.655.014-.783.087-.881.167-.226.535-.215.673.02.045.076.049.13.06.773l.011.692.14.017a.772.772 0 0 1 .6.42c.087.17.095.349.088 2.154-.007 1.719-.008 1.747-.057 1.867a.803.803 0 0 1-.655.495l-.127.01v.672c0 .65-.002.675-.053.776a.405.405 0 0 1-.125.146.484.484 0 0 1-.369.032zm6.633 0a.383.383 0 0 1-.224-.19c-.033-.06-.04-.173-.046-.753l-.008-.682-.125-.013a.949.949 0 0 1-.68-.59c-.07-.188-.008-.95-.008-.95-.009-1.084.001-1.19.13-1.385.142-.22.292-.31.599-.361l.088-.015v-.602c.001-.332.01-.649.022-.705a.388.388 0 0 1 .4-.331c.147 0 .248.051.338.171.046.063.049.098.055.766l.007.699.155.027c.36.063.596.293.662.645.032.173.034 1.774.002 1.967a.782.782 0 0 1-.694.666l-.127.01v.672c0 .65-.001.675-.053.776a.405.405 0 0 1-.125.146.484.484 0 0 1-.368.032zm-3.369-1.684c-.192-.098-.197-.117-.21-.909l-.012-.691-.129-.014a.786.786 0 0 1-.598-.42c-.098-.194-.109-.38-.1-1.758.01-1.428.008-1.406.177-1.629a.795.795 0 0 1 .498-.295l.161-.028.007-.682c.007-.633.01-.688.054-.762.091-.155.25-.222.442-.188.112.02.2.083.262.188.043.074.047.13.054.763l.007.683.11.016c.449.12.666.454.696.586.059.265 0 1.477 0 1.477s.074 1.217 0 1.477-.38.528-.664.57l-.133.016-.012.68c-.011.653-.014.683-.066.78-.096.182-.339.244-.544.14z" style="fill:#00b3b3;fill-opacity:1;stroke-width:.0234404;filter:url(#a)" transform="translate(.312)"/><path d="M17.955 100.694c-.623-.082-1.213-.535-1.434-1.1-.144-.37-.133.06-.14-5.168-.008-5.344.026-4.271.027-4.85.001-.578 1.16-.609 1.174.02.014.628.012 4.7.012 4.7l.011 4.7.05.108c.07.15.213.287.35.334.103.035.567.038 5.534.038 3.877 0 5.456.007 5.545.026.173.036.334.128.406.233.136.196.156.43.055.645-.114.212-.332.279-.438.308-.107.03-5.477.022-5.477.022-3.043.002-5.597-.005-5.675-.016zm2.82-2.493a.383.383 0 0 1-.224-.19c-.033-.06-.04-.173-.047-.756l-.007-.686h-.08a.551.551 0 0 1-.454-.188c-.18-.186-.232-.246-.271-.408-.076-.32-.008-1.794-.008-1.794-.005-1.26.001-1.835.02-1.93.065-.34.393-.625.718-.625h.078l.001-.616c.001-.655.014-.783.087-.881.167-.226.535-.215.673.02.045.076.049.13.06.773l.011.692.14.017a.772.772 0 0 1 .6.42c.087.17.095.349.088 2.154-.007 1.719-.008 1.747-.057 1.867a.803.803 0 0 1-.655.495l-.127.01v.672c0 .65-.002.675-.053.776a.405.405 0 0 1-.125.146.484.484 0 0 1-.369.032zm6.633 0a.383.383 0 0 1-.224-.19c-.033-.06-.04-.173-.046-.753l-.008-.682-.125-.013a.949.949 0 0 1-.68-.59c-.07-.188-.008-.95-.008-.95-.009-1.084.001-1.19.13-1.385.142-.22.292-.31.599-.361l.088-.015v-.602c.001-.332.01-.649.022-.705a.388.388 0 0 1 .4-.331c.147 0 .248.051.338.171.046.063.049.098.055.766l.007.699.155.027c.36.063.596.293.662.645.032.173.034 1.774.002 1.967a.782.782 0 0 1-.694.666l-.127.01v.672c0 .65-.001.675-.053.776a.405.405 0 0 1-.125.146.484.484 0 0 1-.368.032zm-3.369-1.684c-.192-.098-.197-.117-.21-.909l-.012-.691-.129-.014a.786.786 0 0 1-.598-.42c-.098-.194-.109-.38-.1-1.758.01-1.428.008-1.406.177-1.629a.795.795 0 0 1 .498-.295l.161-.028.007-.682c.007-.633.01-.688.054-.762.091-.155.25-.222.442-.188.112.02.2.083.262.188.043.074.047.13.054.763l.007.683.11.016c.449.12.666.454.696.586.059.265 0 1.477 0 1.477s.074 1.217 0 1.477-.38.528-.664.57l-.133.016-.012.68c-.011.653-.014.683-.066.78-.096.182-.339.244-.544.14z" style="fill:#00b3b3;fill-opacity:1;stroke-width:.0234404;filter:url(#b)" transform="translate(.312)"/><path d="M17.955 100.694c-.623-.082-1.213-.535-1.434-1.1-.144-.37-.133.06-.14-5.168-.008-5.344.026-4.271.027-4.85.001-.578 1.16-.609 1.174.02.014.628.012 4.7.012 4.7l.011 4.7.05.108c.07.15.213.287.35.334.103.035.567.038 5.534.038 3.877 0 5.456.007 5.545.026.173.036.334.128.406.233.136.196.156.43.055.645-.114.212-.332.279-.438.308-.107.03-5.477.022-5.477.022-3.043.002-5.597-.005-5.675-.016zm2.82-2.493a.383.383 0 0 1-.224-.19c-.033-.06-.04-.173-.047-.756l-.007-.686h-.08a.551.551 0 0 1-.454-.188c-.18-.186-.232-.246-.271-.408-.076-.32-.008-1.794-.008-1.794-.005-1.26.001-1.835.02-1.93.065-.34.393-.625.718-.625h.078l.001-.616c.001-.655.014-.783.087-.881.167-.226.535-.215.673.02.045.076.049.13.06.773l.011.692.14.017a.772.772 0 0 1 .6.42c.087.17.095.349.088 2.154-.007 1.719-.008 1.747-.057 1.867a.803.803 0 0 1-.655.495l-.127.01v.672c0 .65-.002.675-.053.776a.405.405 0 0 1-.125.146.484.484 0 0 1-.369.032zm6.633 0a.383.383 0 0 1-.224-.19c-.033-.06-.04-.173-.046-.753l-.008-.682-.125-.013a.949.949 0 0 1-.68-.59c-.07-.188-.008-.95-.008-.95-.009-1.084.001-1.19.13-1.385.142-.22.292-.31.599-.361l.088-.015v-.602c.001-.332.01-.649.022-.705a.388.388 0 0 1 .4-.331c.147 0 .248.051.338.171.046.063.049.098.055.766l.007.699.155.027c.36.063.596.293.662.645.032.173.034 1.774.002 1.967a.782.782 0 0 1-.694.666l-.127.01v.672c0 .65-.001.675-.053.776a.405.405 0 0 1-.125.146.484.484 0 0 1-.368.032zm-3.369-1.684c-.192-.098-.197-.117-.21-.909l-.012-.691-.129-.014a.786.786 0 0 1-.598-.42c-.098-.194-.109-.38-.1-1.758.01-1.428.008-1.406.177-1.629a.795.795 0 0 1 .498-.295l.161-.028.007-.682c.007-.633.01-.688.054-.762.091-.155.25-.222.442-.188.112.02.2.083.262.188.043.074.047.13.054.763l.007.683.11.016c.449.12.666.454.696.586.059.265 0 1.477 0 1.477s.074 1.217 0 1.477-.38.528-.664.57l-.133.016-.012.68c-.011.653-.014.683-.066.78-.096.182-.339.244-.544.14z" style="fill:#00b3b3;fill-opacity:1;stroke-width:.0234404" transform="translate(.312)"/><text xml:space="preserve" x="15.622" y="109.03" style="font-style:normal;font-weight:400;font-size:4.42734px;line-height:1.25;font-family:sans-serif;fill:#00b3b3;fill-opacity:1;stroke:none;stroke-width:.110684;filter:url(#c)"><tspan x="15.622" y="109.03" style="fill:#00b3b3;fill-opacity:1;stroke-width:.110684">CHART</tspan></text><text xml:space="preserve" x="15.622" y="109.03" style="font-style:normal;font-weight:400;font-size:4.42734px;line-height:1.25;font-family:sans-serif;fill:#00b3b3;fill-opacity:1;stroke:none;stroke-width:.110684;filter:url(#d)"><tspan x="15.622" y="109.03" style="fill:#00b3b3;fill-opacity:1;stroke-width:.110684">CHART</tspan></text><text xml:space="preserve" x="15.622" y="109.03" style="font-style:normal;font-weight:400;font-size:4.42734px;line-height:1.25;font-family:sans-serif;fill:#00b3b3;fill-opacity:1;stroke:none;stroke-width:.110684"><tspan x="15.622" y="109.03" style="fill:#00b3b3;fill-opacity:1;stroke-width:.110684">CHART</tspan></text><rect width="18.336" height="18.336" x="14.139" y="85.753" ry="2.761" style="fill:none;fill-opacity:1;stroke:#00b3b3;stroke-width:.184599;stroke-opacity:1;filter:url(#e)"/><rect width="18.336" height="18.336" x="14.139" y="85.753" ry="2.761" style="fill:none;fill-opacity:1;stroke:#00b3b3;stroke-width:.184599;stroke-opacity:1;filter:url(#f)"/><rect width="18.336" height="18.336" x="14.139" y="85.753" ry="2.761" style="fill:none;fill-opacity:1;stroke:#00b3b3;stroke-width:.184599;stroke-opacity:1"/></g></svg>