<svg xmlns="http://www.w3.org/2000/svg" xml:space="preserve" viewBox="0 0 212.579 279.079"><defs><filter id="a" width="1.259" height="1.185" x="-.129" y="-.093" style="color-interpolation-filters:sRGB"><feGaussianBlur stdDeviation="10.83"/></filter><filter id="b" width="1.065" height="1.046" x="-.032" y="-.023" style="color-interpolation-filters:sRGB"><feGaussianBlur stdDeviation="2.707"/></filter></defs><g style="fill:#00b3b3;fill-opacity:1"><path d="M0 283.554v.705c5.776 1.708 13.725.353 19.756.353h181.327V283.2c-1.172 0-3.108.346-4.02-.566-.933-.933-.824-3.476-.91-4.726-.208-3.047-.895-6.606-1.586-9.524-.569-2.399-2.62-3.206-2.654-5.998-.189-15.266.3-30.61-.368-45.861-.314-7.167-.34-14.33-.34-21.52 0-3.018-.627-6.584-.129-9.525.786-4.635 5.27-7.045 5.054-12.347-.21-5.2-4-7.884-5.348-12.347-1.444-4.782-.939-13.42-.222-18.345.921-6.337 7.475-9.247 6.964-16.227-.499-6.807-8.903-8.825-7.194-16.213.503-2.17 3.823-2.06 5.456-2.984 2.6-1.47 3.446-5.164 3.142-7.966-.447-4.125-5.653-.812-6.552-4.241-.956-3.647-.326-8.177-.915-11.988a93.683 93.683 0 0 0-7.42-24.694c-16.046-34.951-53.8-56.492-91.966-52.857-32.402 3.086-62.737 23.634-75.696 53.915-3.247 7.586-5.44 15.487-6.704 23.636-.575 3.706-.4 7.65-1.229 11.287-.91 3.993-6.31.821-6.648 5.294-.231 3.07 1.386 6.539 4.2 7.952 1.69.85 4.118.292 4.651 2.638 1.668 7.342-6.456 9.374-7.06 16.22-.272 3.091.983 6.77 2.895 9.173 1.444 1.815 3.513 3.231 3.98 5.644 1.006 5.212 1.117 14.268-.2 19.403-.585 2.284-2.527 3.571-3.495 5.645-3.33 7.132-1.21 11.167 2.496 17.286 1.065 1.759.613 4.374.613 6.35 0 5.067-.353 10.123-.353 15.17-.001 19.56.485 39.399-.698 58.913-.12 1.985-2.024 2.784-2.6 4.587-.89 2.791-1.359 6.596-1.657 9.524-.126 1.233.352 3.393-.348 4.433-.793 1.18-2.995.849-4.222 1.212M96.308 6.724c32.377-3.82 65.746 16.991 81.915 43.996 6.247 10.433 10.001 22.22 11.72 34.22.332 2.315 2.18 11.083-.87 11.59-5.115.848-11.023.051-16.212.051-1.528 0-4.508.561-5.79-.416-1.618-1.234-.82-5.212-1.063-6.992-.821-6.036-2.183-12.019-4.586-17.639-8.231-19.249-25.481-34.462-46.064-39.009-25.275-5.582-52.168 3.931-67.678 24.898-5.407 7.308-9.552 15.795-11.547 24.694-.733 3.274-1.068 6.557-1.46 9.878-.14 1.185.256 3.098-.666 4.02-1.153 1.153-4.289.566-5.785.566-5.2 0-11.092.782-16.22-.052-3.283-.534-1.343-8.218-1.084-10.531 1.255-11.176 4.66-22.32 10.249-32.103C32.611 33.86 49.399 18.428 71.614 11.33c8.11-2.59 16.298-3.616 24.694-4.606m3.528 11.188v-.706c-1.49-.2-5.051 1.328-3.25 3.314.803.886 2.833.274 3.956.567l5.644-11.995c-4.423 2.107-3.53 7.244-6.501 10.112-1.37 1.322-2.695-.587.151-1.292M87.49 9.798c-2.418 3.667-3.323 8.027-3.88 12.347 3.042-.567 7.606-1.978 10.583-1.058l1.764-4.233c-3.574 0-7.751.013-10.937 1.763l3.175-8.819h-.705m-20.461 3.88c-1.864 4.212.383 7.942-.537 11.973-.419 1.832-1.779.667-2.285-.33l1.763-1.412c-1.78.515-3.523 6.286-4.586 2.822l1.411-1.41c-3.968 1.426-.844 6.591 1.059 2.821 1.468.24 2.149-.08 2.822-1.41l1.058.352-1.044-7.055.339-6.35m3.528 0c-1.576 4.09-1.412 8.03-1.412 12.347l10.231-3.528c-.187-1.436 1.015-3.839 1.89-1.389 1.134 3.178-3.288 8.345-4.712 10.914 2.746-1.666 4.736-6.505 5.542-9.525.407-1.523.503-4.517-2.01-3.66-1.632.555-2.248 2.62-3.532 3.66-.214-3.855-4.461-1.582-6.703-.353l.706-8.466m50.8 8.819.352-.353v-.705c-2.272-1.137-6.31 1.96-3.175 3.527.758.38 1.37-.46 2.117-.352.66.094.062.455 0 .705 2.249-.661 3.202-3.174 4.55-4.938 1.38-1.806 3.069-3.038 4.975-4.234-4.197-.61-6.123 5.925-9.185 7.447-1.56.776-2.463-1.775.366-1.097m-30.34-4.586-2.469 2.47c.266-1.633.805-2.28 2.47-2.47m3.175 0c-1.403 4.026-4.789.056 0 0m14.464 3.528c-2.128 3.817-5.74 6.71-9.525 8.82v.352c3.243-1.034 6.523-3.795 8.713-6.35 1.642-1.917 2.474-4.819 5.398-4.586-2.373 2.816-.276 2.69 1.764 3.88l3.527-3.527c-2.22-.3-4.43-1.598-6.702-1.3-1.429.186-2.503 2.15-3.841 1.992-1.096-.13-.866-1.374-.746-2.104l2.117.353c-2.14-3.261-6.19 4.027-.705 2.47m-23.99-.353c1.253-3.641 4.73-1.183 0 0m50.8-1.411c-3.783 1.793-7.085 4.298-9.524 7.76l5.291 2.118 1.059 1.763 2.116 1.059c1.673-.269 3.097-2.338 4.234-.353l-2.117 1.058 6.57 5.533 5.072 4.345c.454 2.669 4.367 6.866 7.055 7.408v-.352l-1.41-1.059c2.534-.524 2.534-2.65 0-3.175.12-1.58-.348-2.16-1.765-2.822l8.467-2.117v-.352c-3.266 0-10.373 3.23-12.7 1.058 3.03-.632 1.645-2.8-.706-3.175v-.353l8.467-2.822v-.353l-12.347 2.822v-.352c2.33-1.11 1.7-2.904-.706-3.175-.32-1.484-1.006-1.879-2.47-2.117-.44-2.607-5.263-5.153-7.76-4.939-.799-1.368-1.626-1.785-3.175-1.411l6.702-5.644-.352-.353m-19.05 1.058c-2.949 3.51-4.404-1.843 0 0m-62.442.353c-.657 5.09-1.323 8.884.01 13.859.333 1.243-.363 3.382 1.44 3.79 2.29.518 3.838-3.425 1.373-4.244.076.641.505 1.765.048 2.328-.593.732-1.712.28-1.841-.59-.164-1.098 1.091-2.465 1.44-3.501-5.458.863-1.452-9.037-2.47-11.642m19.403 2.822-.353-.353c1.243-3.513 3.949-1.091.353.353m-3.528 1.058 1.059-2.822c2.545.982.705 2.394-1.059 2.822m6.703-2.469-.353.353.353-.353m50.8 4.586c2.88-2.695 4.193 2.334 0 0m6.703 1.058-3.528.706c1.052-1.188 2.112-1.535 3.528-.706m2.822 1.764c-3.455 2.747-4.212-2.702 0 0M21.52 36.256l-.353 6.35c-4.309-1.622-3.329 4.319-.39 3.206 4.771-1.806.137-10.255 2.217-13.323 1.703-2.512 6.61 2.068 6.993-2.935-1.003.324-1.75 1.242-2.838 1.298-1.345.07-2.851-.87-4.139-.163-1.473.809-1.677 3.22-2.736 4.472-2.74 3.236-6.862 1.522-7.22-2.432.941.417 2.083 1.172 3.154.826 1.736-.563 1.69-3.066.252-3.937-1.702-1.03-3.634.916-4.203 2.405-1.354 3.54 1.847 6.81 5.382 6.009 1.394-.316 2.631-1.118 3.88-1.776m19.757-5.291c0 4.715 1.897 8.162 3.88 12.347l4.233-5.292c1.44.139 1.99-.43 2.47-1.764h.353l.352 13.053h.353c1.133-6.096.312-11.01-1.058-16.933h-.353l-.362 3.455-1.54.031.491-2.428c-2.211 1.4-1.335 3.445-1.764 5.645h-.353c-1.062-2.62-2.691-2.012-3.527.352l-3.175-8.466m135.819.705c1.429 2.51 3.427 3.818.706 6.35l-2.117-1.41c.321 4.16 3.61 1.602 5.292 0 .21 6.455 9.306.761 4.506-4.183-.643-.664-1.454-1.128-2.39-1.177-1.915-.1-4.01.435-5.997.42m-39.158 1.411c4.04-1.234 2.5 2.831 0 0m21.872 119.592-.353-.353c.549-2.695 1.434-5.706 1.366-8.466-.082-3.303-1.402-7.02-1.14-10.231.18-2.21 1.707-4.287 2.441-6.35 1.503-4.218 1.386-11.605-3.02-14.111 1.645 5.057 1.834 11.04-2.116 15.17-3.79-5.272-10.284-9.025-16.934-9.154-6.621-.128-13.994 3.804-14.755 10.917-.597 5.574 3.43 7.035 5.583 11.29-7.317 2.162-12.7-2.319-12.7-9.526h-.353c-2.456 5.262-.825 8.376 4.586 10.936v.353c-2.3.958-4.494 2.364-7.055 2.454-4.877.171-6.872-4.65-5.645-8.804-3.334 1.746-3.857 6.235-.69 8.59 1.97 1.465 4.372 1.288 6.688 1.288-1.34 2.818-5.86 8.384-9.427 5.138-1.277-1.162-1.452-3.204-1.862-4.785h-.706c-1.806 6.096 3.22 7.02 7.761 6.35-.141 3.292-.897 6.28.247 9.525 2.589 7.34 11.303 9.492 17.39 4.752 4.336-3.377 5.25-9.673.708-13.22.591 2.587 1.452 5.73-.23 8.11-4.572 6.46-17.965 4.433-17.377-4.581.947-14.529 17.641-15.693 27.485-9.046 7.9 5.336 8.819 14.796 8.819 23.51-3.697-1.895-2.528-7.892-6.35-9.878 0 5.45 4.27 7.757 5.404 12.7 1.313 5.719-.808 11.847-.465 17.639-5.938-3.241-2.883-11.109-8.114-14.464l2.47 9.878c-4.586-2.615-8.925-8.896-7.179-14.464.627-1.998 2.6-2.846 3.538-4.6.762-1.424.232-3.06.113-4.573-5.487 5.75-5.19 11.513-3.528 18.698-1.522-.622-3.237-1.572-4.939-1.258-6.71 1.236-3.033 7.235 1.058 8.666-1.359-2.083-3.7-9.507 1.764-7.279 3.241 1.322 5.74 5.41 7.409 8.337-1.54 0-3.14-.142-4.587.483-7.956 3.434-.655 14.476 4.587 8.69-1.402-.001-2.986.172-4.096-.86-3.47-3.222-.544-8.882 4.095-6.87 5.058 2.193 6.55 9.62 7.206 14.432 1.673 12.295 1.902 26.49.302 38.806-.505 3.888-.462 9.749-2.87 13.016-1.666 2.26-4.711 1.636-6.717 3.35-3.219 2.751-3.852 7.189-7.798 9.57-4.263 2.573-9.631 3.043-14.464 3.376-8.88.612-17.899.426-26.811.32-6.71-.08-14.982-.977-20.007-5.851-2.195-2.13-2.894-5.447-5.107-7.414-2.333-2.075-5.848-1.078-7.352-4.374-4.497-9.85-3.285-24.074-2.826-34.57.334-7.628-.23-16.346 2.377-23.637 1.053-2.945 3.444-6.773 6.81-7.329 4.167-.688 5.885 3.91 3.298 6.855-1.139 1.296-2.784 1.178-4.357 1.18 4.664 5.884 12.533-5.128 4.586-8.579-1.379-.598-2.76-.593-4.233-.594.714-2.747 3.684-6.93 6.35-8.082 5.812-2.51 3.937 4.432 2.47 7.024 4.03-1.325 7.33-6.233 1.763-8.463-1.926-.772-3.76.378-5.644.702 1.585-5.64 2.402-14.662-3.881-17.992 0 1.511-.231 3.245.615 4.581 1 1.58 2.743 2.361 3.335 4.239 1.65 5.237-2.367 12.832-7.478 14.464l2.822-10.231c-4.908 3.774-2.11 11.656-8.113 14.464 0-5.88-2.064-12.257-.275-17.992.877-2.815 2.976-4.581 4.378-7.055.968-1.707 1.331-3.888-.576-4.94-.844 2.93-2.492 8.8-5.291 10.231 0-10.16 1.792-21.264 12.347-25.797 8.82-3.789 19.833-3.063 23.39 7.1.674 1.924 1.204 3.96.769 5.997-1.704 7.987-15.786 8.164-18.466.704-.729-2.027.285-4.114 1.01-5.995-4.13 1.972-3.78 7.77-1.274 10.934 5.945 7.504 17.448 4.986 19.654-4.232.694-2.9-.018-5.594-.389-8.466 1.983.669 4 1.607 5.996.403 2.206-1.332 3.852-4.874 1.06-6.4-.195 8.051-8.878 5.075-10.936-.353 2.255-.001 4.744-.052 6.67-1.4 3.27-2.29 2.393-6.621-.673-8.478 3.212 8.621-7.251 10.495-12.7 5.997 4.476-2.65 8.176-6.146 3.88-10.936 1.442 7.762-5.998 11.12-12.7 9.525v-.705c7.431-5.076 7.85-14.656-.352-19.42-4.508-2.617-10.374-2.205-15.17-.679-3.089.983-5.78 2.704-8.114 4.933-.703.67-1.893 2.206-3.036 1.698-1.088-.484-1.463-2.448-1.751-3.466-.985-3.475-1.055-6.738-.151-10.23-5.455 7.102-1.89 11.77-.517 19.402.59 3.277-.057 6.627-.441 9.878-.181 1.535 1.77 8.789.14 9.26-3.913 1.13-4.799-5.58-4.826-7.849-.092-7.747-.562-15.555-1.09-23.283-.233-3.384-1.471-7.955-.563-11.268.475-1.732 2.757-1.623 4.122-2.28a8.205 8.205 0 0 0 4.399-5.502c.386-1.674.473-4.618-1.597-5.18-1.38-.374-3.603.415-4.354-1.25-1.533-3.403.635-10.217 1.428-13.678 8.042-35.08 45.27-56.126 79.499-46.866 22.917 6.199 40.84 25.051 45.786 48.277.664 3.117 2.6 9.256 1.273 12.295-.779 1.783-3.255.756-4.688 1.372-2.484 1.068-1.378 5.715-.36 7.5.838 1.466 2.272 2.725 3.85 3.329 1.08.413 2.817.31 3.518 1.368 1.448 2.185-.139 7.947-.312 10.472-.558 8.146-.178 16.611-1.24 24.694-.516 3.93-1.058 7.345-5.494 8.467m-19.05-117.475c3.747-1.317 2.465 3.082 0 0m-41.98 4.586-2.823-1.411v.706l1.411 1.763c-3.476.316-3.35 2.712 0 3.175l-1.41 2.47.352.353 2.47-1.764c.494 3.807 3.138 4.063 3.174 0l3.175 1.41-1.764-2.469c3.68-.17 3.61-2.877 0-3.175l1.764-2.469c-1.345-.196-1.815.246-2.47 1.411-1.564-2.883-3.262-4.757-3.88 0m-53.622 2.117c.004-4.866 3.403-2.537 0 0m99.836-2.822c4.426-1.014 2.901 3.724 0 0m-104.07.705-2.469 3.528c1.186-.839 2.788-1.941 2.47-3.528m.705 1.764c.971 3.458-1.363 4.789-.352 1.058-2.011.652-2.086 8.947-2.47 2.47-1.186 1.047-2.03 4.73.682 4.421 1.269-.144 3.153-3.306 3.551-4.421h.353l2.47 12.347h.705c-.362-4.584-.618-13.053-4.939-15.875m107.95 2.117c3.983-.646 2.137 3.484 0 0m2.117 2.47c4.297.014 1.964 3.283 0 0m-75.142 6.35-.352 2.116-1.764-1.059-.353.353v.706l1.764 1.41-3.175.706v.353c2.842.156 3.442 1.802 4.233 4.234l.706-3.175 2.822 1.41c-.524-1.251-1.13-1.935-.353-3.174l-1.411-.353 1.764-2.822-.353-.353h-.705L77.612 54.6l-.353-2.117h-.706m46.92 0v2.117l-2.822-1.411 1.763 2.822-2.116.353v.352l1.41.353-1.41 2.47 3.175-1.411.705 3.527h.353c-.139-2.744.998-4.428 3.88-4.586v-.353l-3.174-.705 1.764-2.47-2.117 1.059-.706-2.117h-.705M84.667 68.712l3.89 7.408-.095 4.682 5.377 1.517 14.112-.057 4.725-1.554-.186-4.588 3.927-7.055c-1.179-.292-2.756.262-3.741-.543-1.227-1.002-1.615-3.068-2.42-4.396-1.554-2.566-3.495-5.062-5.363-7.409-1.015-1.275-2.54-3.346-4.35-3.394-1.912-.052-3.65 2.42-4.705 3.747-1.85 2.327-3.902 4.806-5.345 7.409-.722 1.303-1.045 3.445-2.377 4.287-.986.622-2.377.05-3.449-.054m14.817-13.406c1.758 5.95-.367 12.157-2.47 17.64h-.352c-1.81-3.042-3.71-2.937-4.586.705-6.363-3.039 1.491-12.224 4.164-15.522.964-1.19 1.853-2.173 3.244-2.823m9.525 18.345c-1.202-4.144-2.468-3.33-4.939-.706-.896-2.02-1.896-4.225-2.496-6.35a17.656 17.656 0 0 1-.678-4.586c-.014-1.213-.658-5.609.563-6.288 1.353-.752 3.428 2.644 4.092 3.466 2.523 3.127 9.405 11.539 3.458 14.464m-46.214-9.172-.353 2.116-2.47-1.058 1.412 2.822h-2.47v.706c2.608.173 6.371 2.775 7.762-1.059l-1.764.353-1.411-3.88h-.706m74.789 0c-.606 2.55-1.383 3.375-3.88 3.88v.706c3.888.733 3.967 2.227 7.76-.353v-.353h-2.116l1.764-2.822-2.823 1.058-.705-2.116m-37.042 3.54c1.394.169 1.72 2.453 1.985 3.515.782 3.146.548 5.57-3.357 4.887-2.768-.485-.6-8.64 1.372-8.402m12.7 2.81-2.116 6.35-1.764-.353 3.88-5.997m-25.047.352 3.175 5.645c-2.094.317-3.471-3.874-3.175-5.645m5.751.971c1.916-.565 3.37 3.932 1.253 4.514-2.72.748-3.108-3.967-1.253-4.514m12.305-.032c2.06-.756 2.303 3.826.882 4.491-2.968 1.39-3.027-3.703-.882-4.49m-.77 5.41v.706h-10.23v-.706h10.23m4.233 2.47v.353c-6.072 1.144-12.292 1.49-18.344 0 4.156-3.094 13.728-1.817 18.344-.353m40.217-1.059-.705 2.47-2.117-1.058 1.411 2.116-2.822.353v.353l2.822.353-1.411 2.822 2.47-1.059.705 2.47L153.106 80l-2.47 1.41-.705-2.469m-99.484.353v2.117L47.272 80l3.88 7.76.354-2.469 2.469.706-2.117-2.117 3.175-1.41-2.47.352 1.06-2.47-2.117 1.059-.353-2.117h-.706m43.04 21.52c-3.576.03-8.226 1.407-10.584 4.233 2.247.954 5.324.378 7.34 1.564 1.42.834-.097 2.461.992 3.365 1.863 1.546 8.674.363 11.07.363 2.752 0 8.392 1.278 7.762-2.823 3.345-.63 8.156-1.218 9.877-4.586-7.837-1.866-15.107-2.116-23.283-2.116v-1.411h14.111c-1.15-1.769-8.33-1.059-10.583-1.059v-.353l10.23-.352c-.459-1.618-2.105-1.14-3.527-1.038-3.642.262-6.993.577-10.584-.373l2.47-7.056c-4.677 1.603-5.292 7.462-5.292 11.642m1.411-4.234 1.764 1.411v.353l-1.411 1.764h-.353v-3.528m-62.089 7.761c2.64 3.431 5.698-1.482 2.454-3.106-2.923-1.464-4.411 3.229-6.348 4.438-3.126 1.952-7.857 1.874-11.275.873-2.89-.846-4.587-5.828-7.408-5.546-4.355.434-1.872 7.066 1.41 3.694-1.521-.018-4.24-1.63-1.39-2.414 2.075-.571 2.927 2.32 1.834 3.686-3.479 4.35-11.825-3.271-8.547-7.41 1.161-1.466 6.708-.565 8.456-.565H31.75c2.333 0 6.243-.753 8.386.213 4.144 1.868-1.431 8.39-4.153 8.78-3.082.444-6.282-3.992-2.455-4.729 2.199-.423 2.475 2.812-.72 2.086m164.748-6.35c.738 3.978-.553 8.577-5.292 8.806-1.146.055-2.52.106-3.37-.804-1.973-2.111 1.526-5.437 2.916-2.922.869 1.573-1.477 1.613-2.368 1.623 2.615 3.053 5.564-2.14 2.1-3.519-2.932-1.169-4.124 2.988-5.986 4.352-2.456 1.8-5.901 1.81-8.814 1.605-2.175-.153-4.372-.828-5.881-2.475-1.178-1.285-1.94-3.637-3.997-3.687-4-.1-2.802 6.456 1.058 3.724h-2.47c.326-4.274 5.105-1.823 3.464.98-2.912 4.97-11.275-2.028-8.895-6.865.868-1.763 7.224-.818 8.96-.818h28.575m-80.787 5.645c-3.048 3.76-6.165 1.572-9.877 1.105-6.971-.877-13.92.825-20.814-.047 1.574-2.848 5.949-2.822 8.82-2.822 7.685 0 14.41.204 21.871 1.764m-8.113 5.644H92.075c.158-1.05.345-2.49 1.287-3.165 1.114-.797 3.41-.362 4.71-.362 3.803 0 10.343-1.645 10.584 3.527M34.572 148.44c-5.565-1.895-11.125-4.494-16.228-7.409-2.09-1.194-4.53-2.308-5.626-4.587-2.148-4.463-.724-12.057-.724-16.932 0-3.316-1.066-8.937.584-11.914.659-1.19 1.833-.99 2.944-.634 3.61 1.157 6.815 1.862 10.584.942 1.438-.352 4.107-2.075 5.445-.876 1.912 1.714 1.226 7.61 1.51 10.012 1.21 10.262 1.511 21.064 1.511 31.398m131.586 0c.777-9.836 1.319-19.775 1.75-29.634.125-2.837-.594-9.27 1.334-11.524 1.246-1.457 3.94.161 5.383.574 3.705 1.06 7.028.376 10.583-.836 1.145-.39 2.424-.695 3.165.55 1.603 2.69.363 9.19.363 12.295 0 4.717 1.816 11.77.038 16.214-.814 2.033-3.564 3.35-5.33 4.45-5.081 3.163-11.437 6.521-17.286 7.91m-123.12-36.688c2.515-.447 4.748-2.069 7.41-1.598 4.064.72 6.484 7.305 1.058 7.439-1.455.036-2.74-1.216-3.881-1.96.259 4.725 7.675 6.082 9.277 1.409 2.738-7.986-9.77-10.577-13.863-5.29m110.42 3.528h-.353c-1.998 2.59-7.115 3.3-6.909-1.412.256-5.835 8.554-3.073 11.495-2.116-2.702-5.622-14.845-2.935-13.981 3.88.732 5.78 9.444 5.48 9.747-.352m-143.227 3.175c1.446 4.893.352 11.475.352 16.58-5.633-4.052-7.941-13.242-.352-16.58m179.916 15.875.353-15.875c7.617 2.432 6.244 13.074-.353 15.875m-33.514 23.636 9.173-7.548 13.758-6.32 12.7-8.71c-2.144 4.624-7.378 6.964-11.642 9.165-7.377 3.808-15.761 7.494-20.33 14.824-5.15 8.264-2.953 20.66-2.953 29.986 0 2.455.146 4.963-.1 7.408-.055.555-.388 1.998.45 2.194.873.203 1.653-1.662 2.044-2.192 1.536-2.087 3.878-3.74 6.073-5.077 6.287-3.83 13.417-6.037 19.755-9.746 3.543-2.072 5.995-4.974 9.172-7.404-1.761 9.346-10.227 11.645-17.991 14.967-6.987 2.991-14.282 7.824-17.484 15.02-3.667 8.24-4.286 19.387-3.23 28.222.51 4.255 2.04 8.45 2.338 12.7.322 4.604-.18 9.19-.614 13.758-.162 1.695.263 3.61-.172 5.26-.45 1.704-2.012 2.78-2.422 4.618-.566 2.54-1.38 5.169-1.64 7.76-.164 1.637.203 4.104-.774 5.533-1 1.465-4.451.818-5.988.818H54.327c-1.598 0-4.548.56-5.843-.566-1.195-1.038-.786-2.979-.919-4.373-.3-3.129-1.018-6.729-1.78-9.675-.408-1.573-2.084-2.479-2.544-4.083-.875-3.051-.43-7.057-.569-10.231-.112-2.56-.78-5.201-.654-7.761.166-3.41 1.81-6.807 2.282-10.23 1.4-10.163 1.555-22.552-2.782-32.103-3.946-8.689-13.124-12.954-21.41-16.431-6.229-2.614-13.133-5.545-13.758-13.203h.353c5.832 8.217 16.61 10.715 25.047 15.279 4.928 2.665 7.754 6.496 11.994 9.768 0-6.587-.355-13.152-.352-19.755.004-9.27.89-17.302-6.058-24.68-8.042-8.542-22.49-9.576-28.867-19.77l13.405 9 14.464 6.644 7.761 6.934.353-.353c-3.91-12.018-5.69-35.534 12.7-36.336v.353c-9.654 4.574-15.245 13.094-12.243 23.988.513 1.864 1.842 8.254 4.165 8.597 1.974.292 5.096-5.663 6.668-6.868 4.886-3.744 14.185-6.344 20.107-3.845v.353a30.511 30.511 0 0 0-8.82 1.312c-20.244 6.105-15.68 30.084-14.17 45.96.271 2.853-.27 5.63-.293 8.466 2.836-3.717 3.322-8.495 8.467-10.23-.944 4.877-5.984 9.034-7.507 14.111-1.19 3.963-.987 7.94-1.373 11.994-.898 9.435-.621 18.789.028 28.223.349 5.059.498 11.309 3.001 15.874 1.77 3.227 5.12 2.471 7.428 4.773 3.123 3.117 3.754 7.182 7.948 9.572 3.71 2.115 8.191 2.5 12.347 3.041 10.485 1.366 21.237 1.318 31.75.313 5.1-.487 10.554-.505 15.17-3.063 2.438-1.352 4.712-3.443 6.184-5.816.834-1.343 1.247-3.28 2.43-4.356 2.191-1.994 5.06-1.305 7.031-4.111 2.618-3.727 2.618-9.406 3.152-13.758 1.205-9.817.957-19.794.284-29.633-.338-4.94-.257-9.714-1.917-14.464-1.644-4.702-5.348-7.934-7.287-12.347 4.485 1.32 7.452 5.746 8.114 10.23h.353c.683-4.141.073-8.808.384-13.053 1.112-15.179 4.358-35.36-14.143-41.626-2.81-.952-5.85-1.638-8.82-1.765v-.353c6.412-1.19 14.025.078 19.403 3.896 1.806 1.281 4.632 7.238 6.698 7.27 2.255.037 4.1-7.31 4.508-9.05 1.555-6.61.314-14.42-4.916-19.185-2.32-2.115-5.348-2.903-7.7-4.803 3.331-.695 7.587 2.016 9.872 4.247 5.525 5.396 7.006 14.794 5.848 22.211-.547 3.504-2.154 6.754-2.668 10.23m5.292-36.335-2.47 9.525c-2.825-.939 1.252-7.31 1.764-9.525h.706m-122.414.352c1.05 2.707 3.57 6.267 3.175 9.173h-1.058c-1.174-2.595-3.328-6.279-2.117-9.173m18.345 6.35c-5.62 2.925-2.432 9.699 2.116 11.995 1.644.83 4.152.618 5.292 2.116l-11.995 4.94c-.855-3.307-1.794-6.171-3.478-9.173-1.131-2.015-3.068-4.242-2.819-6.703.238-2.345 2.75-4.427 4.534-5.72 4.745-3.439 12.33-5.682 17.991-2.957 4.666 2.247 6.5 8.337 3.25 12.525-4.91 6.324-19.44 1.669-14.891-7.023m89.958 19.05-12.347-4.939c1.138-1.496 3.646-1.18 5.291-2.004 4.976-2.488 7.778-9.178 2.117-12.46 5.687 8.754-9.462 13.681-14.68 7.394-3.502-4.222-1.255-10.31 3.391-12.543 5.73-2.754 13.229-.392 17.992 3.089 1.735 1.268 3.939 3.018 4.433 5.236.487 2.184-1.141 4.23-2.167 5.997-1.859 3.203-3.53 6.516-4.03 10.23m-101.6-12.7c2.56 3.794 8.906 12.609 3.88 16.58 0-3.897-.769-6.757-2.56-10.23-1.018-1.974-2.779-4.202-1.32-6.35m109.008 0c.545 3.311-1.626 5.576-2.867 8.467-1.151 2.682-1.366 5.237-1.366 8.114-5.321-3.965 1.248-12.472 3.528-16.58h.705m-95.955 3.174c3.708 1.186 6.747 1.361 10.583 1.059v.352c-4.015 1.636-7.256 1.172-10.936-1.058l.353-.353m-13.406 2.47c2.02 3.838 3.378 6.89 2.822 11.289h-.352c-1.687-2.89-3.872-7.948-2.47-11.29m109.714 0c-.01 3.93-.869 7.857-2.822 11.29-1.958-3.268.33-8.873 2.822-11.29m-118.533 50.8c-6.22-1.422-12.974-6.024-18.698-8.906-1.929-.971-5.228-2.258-6.34-4.21-1.306-2.296-.362-7.21-.362-9.814 0-5.42.287-10.831.351-16.228.041-3.454-.45-7.207.354-10.583 5.35 2.025 10.88 5.67 15.875 8.52 2.166 1.235 4.856 2.446 6.303 4.565 1.846 2.701 1.453 7.729 1.458 10.904.008 4.973.295 10.216.766 15.17.314 3.3 1.06 7.349.293 10.583m151.694-49.742c1.088 8.61.706 17.773.706 26.458 0 2.736.96 7.747-.416 10.166-2.068 3.634-9.675 5.888-13.343 7.473-2.754 1.191-5.504 2.606-8.114 4.085-.777.44-2.373 1.708-3.315 1.15-.976-.578-.572-2.912-.465-3.824.409-3.462.564-7.096.607-10.583.06-4.896.533-9.942.997-14.817.192-2.021-.402-4.468.525-6.348 1.074-2.181 3.88-3.535 5.885-4.727 5.21-3.1 11.261-6.956 16.933-9.033m-24.694 15.17c0 2.208 1.044 6.94-1.764 7.408-.497 2.784-1.694 7.7-3.88 9.525 0-5.811.632-13.066 5.644-16.933m-127 .352c4.495 4.7 5.291 9.627 5.291 15.875h-.352c-1.708-3-2.894-6.784-3.175-10.23l-1.764 1.41v-7.055M9.878 163.61l.353 12.347c-4.695-2.457-4.004-9.217-.353-12.347m60.678 0c4.988 3.623 9.047 3.191 14.816 3.175v.353c-3.7 2.15-7.887 2.285-11.641.112-1.32-.763-3.21-2-3.175-3.64m120.65 0h.352c2.732 4.142 3.86 9.33-.705 12.7 0-3.664-1.062-9.328.353-12.7m-60.678.353c-3.117 5.378-10.096 6.06-15.17 3.175l7.409-.106 7.76-3.07M38.1 170.666c4.969 3.53 3.945 8.485 3.882 13.758-.045 3.786.351 7.52.351 11.289-5.518-2.581-3.91-13.184-4.265-18.345-.147-2.146-.829-4.651.032-6.702m125.236.352c0 5.304-.665 10.592-1.026 15.875-.249 3.624.186 6.86-3.56 8.82 0-6.733-2.962-21.498 4.586-24.695M11.642 185.481c2.382.357 4.168 1.764 6.35 2.663 5.913 2.436 16.296 5.618 19.393 11.801 1.726 3.446.914 9.93 1.082 13.759.406 9.28 1.146 18.599 1.781 27.869.427 6.228 1.09 12.461 1.366 18.697.076 1.728.977 5.058-.05 6.55-.966 1.405-5.075 1.191-6.639 1.21-5.878.07-11.76.002-17.639 0-1.66 0-5.2.373-6.287-1.21-.995-1.45-.416-4.514-.416-6.197v-15.875c0-8.354.353-16.68.353-25.048 0-6.943.32-13.898.353-20.814.02-4.313-.65-9.197.353-13.405m177.8 0c1.445 11.433.705 23.744.705 35.278 0 8.244.353 16.47.353 24.694 0 5.056-.024 10.113 0 15.17.008 1.755.907 4.327-.063 5.916-1.083 1.773-4.504 1.491-6.287 1.492h-17.992c-1.683 0-5.598.38-6.693-1.212-1.108-1.611-.04-4.74-.01-6.55.107-6.417.744-13.013 1.352-19.402.96-10.081.804-20.252 1.764-30.339.302-3.182-.45-8.152 1.33-10.936 3.366-5.265 11.205-8.163 16.721-10.372 2.908-1.163 5.668-3.416 8.82-3.74m-89.606 5.645-1.764 5.998h-.705l-2.47-3.881 1.411 4.586-.352.353-5.292-2.47 2.822 4.94h-2.47v.705l2.117 1.058-5.997 1.764 5.997 1.764-1.763 1.764h2.116l-2.822 4.939 5.644-2.47-1.41 4.94 3.174-3.881c.147.996 1.226 6.779 2.926 5.614 1.319-.905 1.718-4.504 2.366-5.967l2.117 4.233h.352l-1.058-4.939 5.645 2.47-3.175-4.94h1.763l-1.058-1.057v-.706l5.645-1.411v-.353l-5.645-1.058 1.411-2.47h-2.116l3.175-4.939-5.645 2.47 1.058-4.939-2.469 4.233c-1.03-2.05-1.081-5.58-3.528-6.35m0 4.586c0 5.525.159 9.395-6.703 7.762v-.353c5.21-1.206 3.821-4.336 6.703-7.409m1.411 0c2.708 3.404 1.59 6.071 6.703 7.409v.353c-5.55 1.321-9.073-2.111-6.703-7.762m-7.055 2.47 2.822 1.764-.706 1.41h-.352l-1.764-3.174m12.7 0c.026 1.725-1.12 2.75-2.822 2.822l2.822-2.822m54.68 5.644-2.116 35.984c-2.306-.675-1.676-6.078-1.972-8.114-1.25-8.624-.387-19.955 3.383-27.87h.705m-121.708.353c4.852 10.213 5.532 25.586 2.117 36.336h-.353l-1.425-25.753-.339-10.583m53.27.353c1.741.295 3.907-.512 5.563.262 2.042.953 1.14 5.985 1.14 7.852h-.354c-1.71-4.59-2.303-5.605-6.702-7.761l.352-.353m14.817.353-3.842 1.862-2.508 5.546c-2.864-5.388 1.045-8.91 6.35-7.408M96.308 207l.706 1.411-3.528 1.764L96.308 207m10.937 3.175c-1.51-.633-2.692-1.188-3.175-2.822 1.772.076 2.564 1.248 3.175 2.822m-11.642 49.742c-1.524-.459-4.17.377-1.711 1.749 2.883 1.609 4.28-3.405 4.533-5.277 3.912-.214 5.173-8.59 6.703-2.47l-2.117.354v1.41c2.889-.07 6.008-2.862 3.095-5.532-1.614-1.478-7.57-.847-9.797-.805-.872.016-1.942.156-2.326 1.078-.457 1.096 1.212 1.851 1.54 2.81.754 2.213.176 4.44.08 6.683m4.939-5.644c-4.029-1.17-.481-5.54-.039-1.771.069.582.037 1.186.039 1.77M44.45 267.679c.456 3.586-4.313 4.331-7.056 4.556-7.351.603-14.184.54-21.519.04-2.191-.15-7.012-.412-7.998-2.862-.982-2.439 6.698-.404 7.998-.264 9.722 1.04 19.036-.066 28.575-1.47m112.65.287c2.354-.738 7.468 1.347 10.117 1.463 5.267.23 10.98.454 16.227-.046 2.654-.252 6.211-1.744 8.767-1.477 1.533.16.68 1.83 0 2.456-1.909 1.755-5.273 1.77-7.708 2.106-7.266 1-15.353.971-22.578-.366-1.604-.297-3.67-.864-4.825-2.091-.5-.53-1.018-1.726 0-2.045M7.843 272.13c1.327-.565 3.191.413 4.504.681 3.228.66 6.606.714 9.878 1.116 6.842.84 13.787-.719 20.461-1.797 1.212-.195 3.627.395 2.25 2.075-1.668 2.035-6.248 1.772-8.6 2-8.28.801-16.442.785-24.694-.46-1.009-.153-7.292-2.129-3.799-3.615m148.59 0c1.163-.553 2.933.338 4.08.61 2.916.687 5.864.527 8.82.88 7.95.952 15.159-1.35 22.915-1.623 1.329-.046 2.257 1.317 1.213 2.395-1.647 1.699-5.703 1.545-7.9 1.808a93.563 93.563 0 0 1-23.636-.205c-1.674-.229-3.799-.31-5.24-1.293-.824-.563-1.448-2.003-.251-2.572m-148.987 4.2c1.39-.314 3.171.488 4.547.72 2.887.485 5.9.717 8.82.845 5.148.225 10.402.09 15.522-.399 2.5-.239 5.959-1.606 8.4-1.179 1.806.316 2.352 5.593 1.008 6.52-1.93 1.332-7.108.363-9.408.363H15.522c-2.444 0-6.515.784-8.766-.212-1.691-.75-1.194-6.234.69-6.658m148.529.043c2.314-.834 7.222 1.113 9.83 1.178 6.165.153 12.173.397 18.345-.026 2.721-.187 6.897-1.768 9.478-1.194 1.873.416 2.454 5.42.952 6.453-1.983 1.366-7.023.416-9.372.416h-20.814c-2.456 0-6.5.777-8.767-.212-1.885-.824-1.569-5.925.348-6.615z" style="display:inline;mix-blend-mode:normal;fill:#00b3b3;fill-opacity:1;stroke:none;stroke-width:.352778;filter:url(#a)" transform="translate(21.833 17.74) scale(.84001)"/><path d="M0 283.554v.705c5.776 1.708 13.725.353 19.756.353h181.327V283.2c-1.172 0-3.108.346-4.02-.566-.933-.933-.824-3.476-.91-4.726-.208-3.047-.895-6.606-1.586-9.524-.569-2.399-2.62-3.206-2.654-5.998-.189-15.266.3-30.61-.368-45.861-.314-7.167-.34-14.33-.34-21.52 0-3.018-.627-6.584-.129-9.525.786-4.635 5.27-7.045 5.054-12.347-.21-5.2-4-7.884-5.348-12.347-1.444-4.782-.939-13.42-.222-18.345.921-6.337 7.475-9.247 6.964-16.227-.499-6.807-8.903-8.825-7.194-16.213.503-2.17 3.823-2.06 5.456-2.984 2.6-1.47 3.446-5.164 3.142-7.966-.447-4.125-5.653-.812-6.552-4.241-.956-3.647-.326-8.177-.915-11.988a93.683 93.683 0 0 0-7.42-24.694c-16.046-34.951-53.8-56.492-91.966-52.857-32.402 3.086-62.737 23.634-75.696 53.915-3.247 7.586-5.44 15.487-6.704 23.636-.575 3.706-.4 7.65-1.229 11.287-.91 3.993-6.31.821-6.648 5.294-.231 3.07 1.386 6.539 4.2 7.952 1.69.85 4.118.292 4.651 2.638 1.668 7.342-6.456 9.374-7.06 16.22-.272 3.091.983 6.77 2.895 9.173 1.444 1.815 3.513 3.231 3.98 5.644 1.006 5.212 1.117 14.268-.2 19.403-.585 2.284-2.527 3.571-3.495 5.645-3.33 7.132-1.21 11.167 2.496 17.286 1.065 1.759.613 4.374.613 6.35 0 5.067-.353 10.123-.353 15.17-.001 19.56.485 39.399-.698 58.913-.12 1.985-2.024 2.784-2.6 4.587-.89 2.791-1.359 6.596-1.657 9.524-.126 1.233.352 3.393-.348 4.433-.793 1.18-2.995.849-4.222 1.212M96.308 6.724c32.377-3.82 65.746 16.991 81.915 43.996 6.247 10.433 10.001 22.22 11.72 34.22.332 2.315 2.18 11.083-.87 11.59-5.115.848-11.023.051-16.212.051-1.528 0-4.508.561-5.79-.416-1.618-1.234-.82-5.212-1.063-6.992-.821-6.036-2.183-12.019-4.586-17.639-8.231-19.249-25.481-34.462-46.064-39.009-25.275-5.582-52.168 3.931-67.678 24.898-5.407 7.308-9.552 15.795-11.547 24.694-.733 3.274-1.068 6.557-1.46 9.878-.14 1.185.256 3.098-.666 4.02-1.153 1.153-4.289.566-5.785.566-5.2 0-11.092.782-16.22-.052-3.283-.534-1.343-8.218-1.084-10.531 1.255-11.176 4.66-22.32 10.249-32.103C32.611 33.86 49.399 18.428 71.614 11.33c8.11-2.59 16.298-3.616 24.694-4.606m3.528 11.188v-.706c-1.49-.2-5.051 1.328-3.25 3.314.803.886 2.833.274 3.956.567l5.644-11.995c-4.423 2.107-3.53 7.244-6.501 10.112-1.37 1.322-2.695-.587.151-1.292M87.49 9.798c-2.418 3.667-3.323 8.027-3.88 12.347 3.042-.567 7.606-1.978 10.583-1.058l1.764-4.233c-3.574 0-7.751.013-10.937 1.763l3.175-8.819h-.705m-20.461 3.88c-1.864 4.212.383 7.942-.537 11.973-.419 1.832-1.779.667-2.285-.33l1.763-1.412c-1.78.515-3.523 6.286-4.586 2.822l1.411-1.41c-3.968 1.426-.844 6.591 1.059 2.821 1.468.24 2.149-.08 2.822-1.41l1.058.352-1.044-7.055.339-6.35m3.528 0c-1.576 4.09-1.412 8.03-1.412 12.347l10.231-3.528c-.187-1.436 1.015-3.839 1.89-1.389 1.134 3.178-3.288 8.345-4.712 10.914 2.746-1.666 4.736-6.505 5.542-9.525.407-1.523.503-4.517-2.01-3.66-1.632.555-2.248 2.62-3.532 3.66-.214-3.855-4.461-1.582-6.703-.353l.706-8.466m50.8 8.819.352-.353v-.705c-2.272-1.137-6.31 1.96-3.175 3.527.758.38 1.37-.46 2.117-.352.66.094.062.455 0 .705 2.249-.661 3.202-3.174 4.55-4.938 1.38-1.806 3.069-3.038 4.975-4.234-4.197-.61-6.123 5.925-9.185 7.447-1.56.776-2.463-1.775.366-1.097m-30.34-4.586-2.469 2.47c.266-1.633.805-2.28 2.47-2.47m3.175 0c-1.403 4.026-4.789.056 0 0m14.464 3.528c-2.128 3.817-5.74 6.71-9.525 8.82v.352c3.243-1.034 6.523-3.795 8.713-6.35 1.642-1.917 2.474-4.819 5.398-4.586-2.373 2.816-.276 2.69 1.764 3.88l3.527-3.527c-2.22-.3-4.43-1.598-6.702-1.3-1.429.186-2.503 2.15-3.841 1.992-1.096-.13-.866-1.374-.746-2.104l2.117.353c-2.14-3.261-6.19 4.027-.705 2.47m-23.99-.353c1.253-3.641 4.73-1.183 0 0m50.8-1.411c-3.783 1.793-7.085 4.298-9.524 7.76l5.291 2.118 1.059 1.763 2.116 1.059c1.673-.269 3.097-2.338 4.234-.353l-2.117 1.058 6.57 5.533 5.072 4.345c.454 2.669 4.367 6.866 7.055 7.408v-.352l-1.41-1.059c2.534-.524 2.534-2.65 0-3.175.12-1.58-.348-2.16-1.765-2.822l8.467-2.117v-.352c-3.266 0-10.373 3.23-12.7 1.058 3.03-.632 1.645-2.8-.706-3.175v-.353l8.467-2.822v-.353l-12.347 2.822v-.352c2.33-1.11 1.7-2.904-.706-3.175-.32-1.484-1.006-1.879-2.47-2.117-.44-2.607-5.263-5.153-7.76-4.939-.799-1.368-1.626-1.785-3.175-1.411l6.702-5.644-.352-.353m-19.05 1.058c-2.949 3.51-4.404-1.843 0 0m-62.442.353c-.657 5.09-1.323 8.884.01 13.859.333 1.243-.363 3.382 1.44 3.79 2.29.518 3.838-3.425 1.373-4.244.076.641.505 1.765.048 2.328-.593.732-1.712.28-1.841-.59-.164-1.098 1.091-2.465 1.44-3.501-5.458.863-1.452-9.037-2.47-11.642m19.403 2.822-.353-.353c1.243-3.513 3.949-1.091.353.353m-3.528 1.058 1.059-2.822c2.545.982.705 2.394-1.059 2.822m6.703-2.469-.353.353.353-.353m50.8 4.586c2.88-2.695 4.193 2.334 0 0m6.703 1.058-3.528.706c1.052-1.188 2.112-1.535 3.528-.706m2.822 1.764c-3.455 2.747-4.212-2.702 0 0M21.52 36.256l-.353 6.35c-4.309-1.622-3.329 4.319-.39 3.206 4.771-1.806.137-10.255 2.217-13.323 1.703-2.512 6.61 2.068 6.993-2.935-1.003.324-1.75 1.242-2.838 1.298-1.345.07-2.851-.87-4.139-.163-1.473.809-1.677 3.22-2.736 4.472-2.74 3.236-6.862 1.522-7.22-2.432.941.417 2.083 1.172 3.154.826 1.736-.563 1.69-3.066.252-3.937-1.702-1.03-3.634.916-4.203 2.405-1.354 3.54 1.847 6.81 5.382 6.009 1.394-.316 2.631-1.118 3.88-1.776m19.757-5.291c0 4.715 1.897 8.162 3.88 12.347l4.233-5.292c1.44.139 1.99-.43 2.47-1.764h.353l.352 13.053h.353c1.133-6.096.312-11.01-1.058-16.933h-.353l-.362 3.455-1.54.031.491-2.428c-2.211 1.4-1.335 3.445-1.764 5.645h-.353c-1.062-2.62-2.691-2.012-3.527.352l-3.175-8.466m135.819.705c1.429 2.51 3.427 3.818.706 6.35l-2.117-1.41c.321 4.16 3.61 1.602 5.292 0 .21 6.455 9.306.761 4.506-4.183-.643-.664-1.454-1.128-2.39-1.177-1.915-.1-4.01.435-5.997.42m-39.158 1.411c4.04-1.234 2.5 2.831 0 0m21.872 119.592-.353-.353c.549-2.695 1.434-5.706 1.366-8.466-.082-3.303-1.402-7.02-1.14-10.231.18-2.21 1.707-4.287 2.441-6.35 1.503-4.218 1.386-11.605-3.02-14.111 1.645 5.057 1.834 11.04-2.116 15.17-3.79-5.272-10.284-9.025-16.934-9.154-6.621-.128-13.994 3.804-14.755 10.917-.597 5.574 3.43 7.035 5.583 11.29-7.317 2.162-12.7-2.319-12.7-9.526h-.353c-2.456 5.262-.825 8.376 4.586 10.936v.353c-2.3.958-4.494 2.364-7.055 2.454-4.877.171-6.872-4.65-5.645-8.804-3.334 1.746-3.857 6.235-.69 8.59 1.97 1.465 4.372 1.288 6.688 1.288-1.34 2.818-5.86 8.384-9.427 5.138-1.277-1.162-1.452-3.204-1.862-4.785h-.706c-1.806 6.096 3.22 7.02 7.761 6.35-.141 3.292-.897 6.28.247 9.525 2.589 7.34 11.303 9.492 17.39 4.752 4.336-3.377 5.25-9.673.708-13.22.591 2.587 1.452 5.73-.23 8.11-4.572 6.46-17.965 4.433-17.377-4.581.947-14.529 17.641-15.693 27.485-9.046 7.9 5.336 8.819 14.796 8.819 23.51-3.697-1.895-2.528-7.892-6.35-9.878 0 5.45 4.27 7.757 5.404 12.7 1.313 5.719-.808 11.847-.465 17.639-5.938-3.241-2.883-11.109-8.114-14.464l2.47 9.878c-4.586-2.615-8.925-8.896-7.179-14.464.627-1.998 2.6-2.846 3.538-4.6.762-1.424.232-3.06.113-4.573-5.487 5.75-5.19 11.513-3.528 18.698-1.522-.622-3.237-1.572-4.939-1.258-6.71 1.236-3.033 7.235 1.058 8.666-1.359-2.083-3.7-9.507 1.764-7.279 3.241 1.322 5.74 5.41 7.409 8.337-1.54 0-3.14-.142-4.587.483-7.956 3.434-.655 14.476 4.587 8.69-1.402-.001-2.986.172-4.096-.86-3.47-3.222-.544-8.882 4.095-6.87 5.058 2.193 6.55 9.62 7.206 14.432 1.673 12.295 1.902 26.49.302 38.806-.505 3.888-.462 9.749-2.87 13.016-1.666 2.26-4.711 1.636-6.717 3.35-3.219 2.751-3.852 7.189-7.798 9.57-4.263 2.573-9.631 3.043-14.464 3.376-8.88.612-17.899.426-26.811.32-6.71-.08-14.982-.977-20.007-5.851-2.195-2.13-2.894-5.447-5.107-7.414-2.333-2.075-5.848-1.078-7.352-4.374-4.497-9.85-3.285-24.074-2.826-34.57.334-7.628-.23-16.346 2.377-23.637 1.053-2.945 3.444-6.773 6.81-7.329 4.167-.688 5.885 3.91 3.298 6.855-1.139 1.296-2.784 1.178-4.357 1.18 4.664 5.884 12.533-5.128 4.586-8.579-1.379-.598-2.76-.593-4.233-.594.714-2.747 3.684-6.93 6.35-8.082 5.812-2.51 3.937 4.432 2.47 7.024 4.03-1.325 7.33-6.233 1.763-8.463-1.926-.772-3.76.378-5.644.702 1.585-5.64 2.402-14.662-3.881-17.992 0 1.511-.231 3.245.615 4.581 1 1.58 2.743 2.361 3.335 4.239 1.65 5.237-2.367 12.832-7.478 14.464l2.822-10.231c-4.908 3.774-2.11 11.656-8.113 14.464 0-5.88-2.064-12.257-.275-17.992.877-2.815 2.976-4.581 4.378-7.055.968-1.707 1.331-3.888-.576-4.94-.844 2.93-2.492 8.8-5.291 10.231 0-10.16 1.792-21.264 12.347-25.797 8.82-3.789 19.833-3.063 23.39 7.1.674 1.924 1.204 3.96.769 5.997-1.704 7.987-15.786 8.164-18.466.704-.729-2.027.285-4.114 1.01-5.995-4.13 1.972-3.78 7.77-1.274 10.934 5.945 7.504 17.448 4.986 19.654-4.232.694-2.9-.018-5.594-.389-8.466 1.983.669 4 1.607 5.996.403 2.206-1.332 3.852-4.874 1.06-6.4-.195 8.051-8.878 5.075-10.936-.353 2.255-.001 4.744-.052 6.67-1.4 3.27-2.29 2.393-6.621-.673-8.478 3.212 8.621-7.251 10.495-12.7 5.997 4.476-2.65 8.176-6.146 3.88-10.936 1.442 7.762-5.998 11.12-12.7 9.525v-.705c7.431-5.076 7.85-14.656-.352-19.42-4.508-2.617-10.374-2.205-15.17-.679-3.089.983-5.78 2.704-8.114 4.933-.703.67-1.893 2.206-3.036 1.698-1.088-.484-1.463-2.448-1.751-3.466-.985-3.475-1.055-6.738-.151-10.23-5.455 7.102-1.89 11.77-.517 19.402.59 3.277-.057 6.627-.441 9.878-.181 1.535 1.77 8.789.14 9.26-3.913 1.13-4.799-5.58-4.826-7.849-.092-7.747-.562-15.555-1.09-23.283-.233-3.384-1.471-7.955-.563-11.268.475-1.732 2.757-1.623 4.122-2.28a8.205 8.205 0 0 0 4.399-5.502c.386-1.674.473-4.618-1.597-5.18-1.38-.374-3.603.415-4.354-1.25-1.533-3.403.635-10.217 1.428-13.678 8.042-35.08 45.27-56.126 79.499-46.866 22.917 6.199 40.84 25.051 45.786 48.277.664 3.117 2.6 9.256 1.273 12.295-.779 1.783-3.255.756-4.688 1.372-2.484 1.068-1.378 5.715-.36 7.5.838 1.466 2.272 2.725 3.85 3.329 1.08.413 2.817.31 3.518 1.368 1.448 2.185-.139 7.947-.312 10.472-.558 8.146-.178 16.611-1.24 24.694-.516 3.93-1.058 7.345-5.494 8.467m-19.05-117.475c3.747-1.317 2.465 3.082 0 0m-41.98 4.586-2.823-1.411v.706l1.411 1.763c-3.476.316-3.35 2.712 0 3.175l-1.41 2.47.352.353 2.47-1.764c.494 3.807 3.138 4.063 3.174 0l3.175 1.41-1.764-2.469c3.68-.17 3.61-2.877 0-3.175l1.764-2.469c-1.345-.196-1.815.246-2.47 1.411-1.564-2.883-3.262-4.757-3.88 0m-53.622 2.117c.004-4.866 3.403-2.537 0 0m99.836-2.822c4.426-1.014 2.901 3.724 0 0m-104.07.705-2.469 3.528c1.186-.839 2.788-1.941 2.47-3.528m.705 1.764c.971 3.458-1.363 4.789-.352 1.058-2.011.652-2.086 8.947-2.47 2.47-1.186 1.047-2.03 4.73.682 4.421 1.269-.144 3.153-3.306 3.551-4.421h.353l2.47 12.347h.705c-.362-4.584-.618-13.053-4.939-15.875m107.95 2.117c3.983-.646 2.137 3.484 0 0m2.117 2.47c4.297.014 1.964 3.283 0 0m-75.142 6.35-.352 2.116-1.764-1.059-.353.353v.706l1.764 1.41-3.175.706v.353c2.842.156 3.442 1.802 4.233 4.234l.706-3.175 2.822 1.41c-.524-1.251-1.13-1.935-.353-3.174l-1.411-.353 1.764-2.822-.353-.353h-.705L77.612 54.6l-.353-2.117h-.706m46.92 0v2.117l-2.822-1.411 1.763 2.822-2.116.353v.352l1.41.353-1.41 2.47 3.175-1.411.705 3.527h.353c-.139-2.744.998-4.428 3.88-4.586v-.353l-3.174-.705 1.764-2.47-2.117 1.059-.706-2.117h-.705M84.667 68.712l3.89 7.408-.095 4.682 5.377 1.517 14.112-.057 4.725-1.554-.186-4.588 3.927-7.055c-1.179-.292-2.756.262-3.741-.543-1.227-1.002-1.615-3.068-2.42-4.396-1.554-2.566-3.495-5.062-5.363-7.409-1.015-1.275-2.54-3.346-4.35-3.394-1.912-.052-3.65 2.42-4.705 3.747-1.85 2.327-3.902 4.806-5.345 7.409-.722 1.303-1.045 3.445-2.377 4.287-.986.622-2.377.05-3.449-.054m14.817-13.406c1.758 5.95-.367 12.157-2.47 17.64h-.352c-1.81-3.042-3.71-2.937-4.586.705-6.363-3.039 1.491-12.224 4.164-15.522.964-1.19 1.853-2.173 3.244-2.823m9.525 18.345c-1.202-4.144-2.468-3.33-4.939-.706-.896-2.02-1.896-4.225-2.496-6.35a17.656 17.656 0 0 1-.678-4.586c-.014-1.213-.658-5.609.563-6.288 1.353-.752 3.428 2.644 4.092 3.466 2.523 3.127 9.405 11.539 3.458 14.464m-46.214-9.172-.353 2.116-2.47-1.058 1.412 2.822h-2.47v.706c2.608.173 6.371 2.775 7.762-1.059l-1.764.353-1.411-3.88h-.706m74.789 0c-.606 2.55-1.383 3.375-3.88 3.88v.706c3.888.733 3.967 2.227 7.76-.353v-.353h-2.116l1.764-2.822-2.823 1.058-.705-2.116m-37.042 3.54c1.394.169 1.72 2.453 1.985 3.515.782 3.146.548 5.57-3.357 4.887-2.768-.485-.6-8.64 1.372-8.402m12.7 2.81-2.116 6.35-1.764-.353 3.88-5.997m-25.047.352 3.175 5.645c-2.094.317-3.471-3.874-3.175-5.645m5.751.971c1.916-.565 3.37 3.932 1.253 4.514-2.72.748-3.108-3.967-1.253-4.514m12.305-.032c2.06-.756 2.303 3.826.882 4.491-2.968 1.39-3.027-3.703-.882-4.49m-.77 5.41v.706h-10.23v-.706h10.23m4.233 2.47v.353c-6.072 1.144-12.292 1.49-18.344 0 4.156-3.094 13.728-1.817 18.344-.353m40.217-1.059-.705 2.47-2.117-1.058 1.411 2.116-2.822.353v.353l2.822.353-1.411 2.822 2.47-1.059.705 2.47L153.106 80l-2.47 1.41-.705-2.469m-99.484.353v2.117L47.272 80l3.88 7.76.354-2.469 2.469.706-2.117-2.117 3.175-1.41-2.47.352 1.06-2.47-2.117 1.059-.353-2.117h-.706m43.04 21.52c-3.576.03-8.226 1.407-10.584 4.233 2.247.954 5.324.378 7.34 1.564 1.42.834-.097 2.461.992 3.365 1.863 1.546 8.674.363 11.07.363 2.752 0 8.392 1.278 7.762-2.823 3.345-.63 8.156-1.218 9.877-4.586-7.837-1.866-15.107-2.116-23.283-2.116v-1.411h14.111c-1.15-1.769-8.33-1.059-10.583-1.059v-.353l10.23-.352c-.459-1.618-2.105-1.14-3.527-1.038-3.642.262-6.993.577-10.584-.373l2.47-7.056c-4.677 1.603-5.292 7.462-5.292 11.642m1.411-4.234 1.764 1.411v.353l-1.411 1.764h-.353v-3.528m-62.089 7.761c2.64 3.431 5.698-1.482 2.454-3.106-2.923-1.464-4.411 3.229-6.348 4.438-3.126 1.952-7.857 1.874-11.275.873-2.89-.846-4.587-5.828-7.408-5.546-4.355.434-1.872 7.066 1.41 3.694-1.521-.018-4.24-1.63-1.39-2.414 2.075-.571 2.927 2.32 1.834 3.686-3.479 4.35-11.825-3.271-8.547-7.41 1.161-1.466 6.708-.565 8.456-.565H31.75c2.333 0 6.243-.753 8.386.213 4.144 1.868-1.431 8.39-4.153 8.78-3.082.444-6.282-3.992-2.455-4.729 2.199-.423 2.475 2.812-.72 2.086m164.748-6.35c.738 3.978-.553 8.577-5.292 8.806-1.146.055-2.52.106-3.37-.804-1.973-2.111 1.526-5.437 2.916-2.922.869 1.573-1.477 1.613-2.368 1.623 2.615 3.053 5.564-2.14 2.1-3.519-2.932-1.169-4.124 2.988-5.986 4.352-2.456 1.8-5.901 1.81-8.814 1.605-2.175-.153-4.372-.828-5.881-2.475-1.178-1.285-1.94-3.637-3.997-3.687-4-.1-2.802 6.456 1.058 3.724h-2.47c.326-4.274 5.105-1.823 3.464.98-2.912 4.97-11.275-2.028-8.895-6.865.868-1.763 7.224-.818 8.96-.818h28.575m-80.787 5.645c-3.048 3.76-6.165 1.572-9.877 1.105-6.971-.877-13.92.825-20.814-.047 1.574-2.848 5.949-2.822 8.82-2.822 7.685 0 14.41.204 21.871 1.764m-8.113 5.644H92.075c.158-1.05.345-2.49 1.287-3.165 1.114-.797 3.41-.362 4.71-.362 3.803 0 10.343-1.645 10.584 3.527M34.572 148.44c-5.565-1.895-11.125-4.494-16.228-7.409-2.09-1.194-4.53-2.308-5.626-4.587-2.148-4.463-.724-12.057-.724-16.932 0-3.316-1.066-8.937.584-11.914.659-1.19 1.833-.99 2.944-.634 3.61 1.157 6.815 1.862 10.584.942 1.438-.352 4.107-2.075 5.445-.876 1.912 1.714 1.226 7.61 1.51 10.012 1.21 10.262 1.511 21.064 1.511 31.398m131.586 0c.777-9.836 1.319-19.775 1.75-29.634.125-2.837-.594-9.27 1.334-11.524 1.246-1.457 3.94.161 5.383.574 3.705 1.06 7.028.376 10.583-.836 1.145-.39 2.424-.695 3.165.55 1.603 2.69.363 9.19.363 12.295 0 4.717 1.816 11.77.038 16.214-.814 2.033-3.564 3.35-5.33 4.45-5.081 3.163-11.437 6.521-17.286 7.91m-123.12-36.688c2.515-.447 4.748-2.069 7.41-1.598 4.064.72 6.484 7.305 1.058 7.439-1.455.036-2.74-1.216-3.881-1.96.259 4.725 7.675 6.082 9.277 1.409 2.738-7.986-9.77-10.577-13.863-5.29m110.42 3.528h-.353c-1.998 2.59-7.115 3.3-6.909-1.412.256-5.835 8.554-3.073 11.495-2.116-2.702-5.622-14.845-2.935-13.981 3.88.732 5.78 9.444 5.48 9.747-.352m-143.227 3.175c1.446 4.893.352 11.475.352 16.58-5.633-4.052-7.941-13.242-.352-16.58m179.916 15.875.353-15.875c7.617 2.432 6.244 13.074-.353 15.875m-33.514 23.636 9.173-7.548 13.758-6.32 12.7-8.71c-2.144 4.624-7.378 6.964-11.642 9.165-7.377 3.808-15.761 7.494-20.33 14.824-5.15 8.264-2.953 20.66-2.953 29.986 0 2.455.146 4.963-.1 7.408-.055.555-.388 1.998.45 2.194.873.203 1.653-1.662 2.044-2.192 1.536-2.087 3.878-3.74 6.073-5.077 6.287-3.83 13.417-6.037 19.755-9.746 3.543-2.072 5.995-4.974 9.172-7.404-1.761 9.346-10.227 11.645-17.991 14.967-6.987 2.991-14.282 7.824-17.484 15.02-3.667 8.24-4.286 19.387-3.23 28.222.51 4.255 2.04 8.45 2.338 12.7.322 4.604-.18 9.19-.614 13.758-.162 1.695.263 3.61-.172 5.26-.45 1.704-2.012 2.78-2.422 4.618-.566 2.54-1.38 5.169-1.64 7.76-.164 1.637.203 4.104-.774 5.533-1 1.465-4.451.818-5.988.818H54.327c-1.598 0-4.548.56-5.843-.566-1.195-1.038-.786-2.979-.919-4.373-.3-3.129-1.018-6.729-1.78-9.675-.408-1.573-2.084-2.479-2.544-4.083-.875-3.051-.43-7.057-.569-10.231-.112-2.56-.78-5.201-.654-7.761.166-3.41 1.81-6.807 2.282-10.23 1.4-10.163 1.555-22.552-2.782-32.103-3.946-8.689-13.124-12.954-21.41-16.431-6.229-2.614-13.133-5.545-13.758-13.203h.353c5.832 8.217 16.61 10.715 25.047 15.279 4.928 2.665 7.754 6.496 11.994 9.768 0-6.587-.355-13.152-.352-19.755.004-9.27.89-17.302-6.058-24.68-8.042-8.542-22.49-9.576-28.867-19.77l13.405 9 14.464 6.644 7.761 6.934.353-.353c-3.91-12.018-5.69-35.534 12.7-36.336v.353c-9.654 4.574-15.245 13.094-12.243 23.988.513 1.864 1.842 8.254 4.165 8.597 1.974.292 5.096-5.663 6.668-6.868 4.886-3.744 14.185-6.344 20.107-3.845v.353a30.511 30.511 0 0 0-8.82 1.312c-20.244 6.105-15.68 30.084-14.17 45.96.271 2.853-.27 5.63-.293 8.466 2.836-3.717 3.322-8.495 8.467-10.23-.944 4.877-5.984 9.034-7.507 14.111-1.19 3.963-.987 7.94-1.373 11.994-.898 9.435-.621 18.789.028 28.223.349 5.059.498 11.309 3.001 15.874 1.77 3.227 5.12 2.471 7.428 4.773 3.123 3.117 3.754 7.182 7.948 9.572 3.71 2.115 8.191 2.5 12.347 3.041 10.485 1.366 21.237 1.318 31.75.313 5.1-.487 10.554-.505 15.17-3.063 2.438-1.352 4.712-3.443 6.184-5.816.834-1.343 1.247-3.28 2.43-4.356 2.191-1.994 5.06-1.305 7.031-4.111 2.618-3.727 2.618-9.406 3.152-13.758 1.205-9.817.957-19.794.284-29.633-.338-4.94-.257-9.714-1.917-14.464-1.644-4.702-5.348-7.934-7.287-12.347 4.485 1.32 7.452 5.746 8.114 10.23h.353c.683-4.141.073-8.808.384-13.053 1.112-15.179 4.358-35.36-14.143-41.626-2.81-.952-5.85-1.638-8.82-1.765v-.353c6.412-1.19 14.025.078 19.403 3.896 1.806 1.281 4.632 7.238 6.698 7.27 2.255.037 4.1-7.31 4.508-9.05 1.555-6.61.314-14.42-4.916-19.185-2.32-2.115-5.348-2.903-7.7-4.803 3.331-.695 7.587 2.016 9.872 4.247 5.525 5.396 7.006 14.794 5.848 22.211-.547 3.504-2.154 6.754-2.668 10.23m5.292-36.335-2.47 9.525c-2.825-.939 1.252-7.31 1.764-9.525h.706m-122.414.352c1.05 2.707 3.57 6.267 3.175 9.173h-1.058c-1.174-2.595-3.328-6.279-2.117-9.173m18.345 6.35c-5.62 2.925-2.432 9.699 2.116 11.995 1.644.83 4.152.618 5.292 2.116l-11.995 4.94c-.855-3.307-1.794-6.171-3.478-9.173-1.131-2.015-3.068-4.242-2.819-6.703.238-2.345 2.75-4.427 4.534-5.72 4.745-3.439 12.33-5.682 17.991-2.957 4.666 2.247 6.5 8.337 3.25 12.525-4.91 6.324-19.44 1.669-14.891-7.023m89.958 19.05-12.347-4.939c1.138-1.496 3.646-1.18 5.291-2.004 4.976-2.488 7.778-9.178 2.117-12.46 5.687 8.754-9.462 13.681-14.68 7.394-3.502-4.222-1.255-10.31 3.391-12.543 5.73-2.754 13.229-.392 17.992 3.089 1.735 1.268 3.939 3.018 4.433 5.236.487 2.184-1.141 4.23-2.167 5.997-1.859 3.203-3.53 6.516-4.03 10.23m-101.6-12.7c2.56 3.794 8.906 12.609 3.88 16.58 0-3.897-.769-6.757-2.56-10.23-1.018-1.974-2.779-4.202-1.32-6.35m109.008 0c.545 3.311-1.626 5.576-2.867 8.467-1.151 2.682-1.366 5.237-1.366 8.114-5.321-3.965 1.248-12.472 3.528-16.58h.705m-95.955 3.174c3.708 1.186 6.747 1.361 10.583 1.059v.352c-4.015 1.636-7.256 1.172-10.936-1.058l.353-.353m-13.406 2.47c2.02 3.838 3.378 6.89 2.822 11.289h-.352c-1.687-2.89-3.872-7.948-2.47-11.29m109.714 0c-.01 3.93-.869 7.857-2.822 11.29-1.958-3.268.33-8.873 2.822-11.29m-118.533 50.8c-6.22-1.422-12.974-6.024-18.698-8.906-1.929-.971-5.228-2.258-6.34-4.21-1.306-2.296-.362-7.21-.362-9.814 0-5.42.287-10.831.351-16.228.041-3.454-.45-7.207.354-10.583 5.35 2.025 10.88 5.67 15.875 8.52 2.166 1.235 4.856 2.446 6.303 4.565 1.846 2.701 1.453 7.729 1.458 10.904.008 4.973.295 10.216.766 15.17.314 3.3 1.06 7.349.293 10.583m151.694-49.742c1.088 8.61.706 17.773.706 26.458 0 2.736.96 7.747-.416 10.166-2.068 3.634-9.675 5.888-13.343 7.473-2.754 1.191-5.504 2.606-8.114 4.085-.777.44-2.373 1.708-3.315 1.15-.976-.578-.572-2.912-.465-3.824.409-3.462.564-7.096.607-10.583.06-4.896.533-9.942.997-14.817.192-2.021-.402-4.468.525-6.348 1.074-2.181 3.88-3.535 5.885-4.727 5.21-3.1 11.261-6.956 16.933-9.033m-24.694 15.17c0 2.208 1.044 6.94-1.764 7.408-.497 2.784-1.694 7.7-3.88 9.525 0-5.811.632-13.066 5.644-16.933m-127 .352c4.495 4.7 5.291 9.627 5.291 15.875h-.352c-1.708-3-2.894-6.784-3.175-10.23l-1.764 1.41v-7.055M9.878 163.61l.353 12.347c-4.695-2.457-4.004-9.217-.353-12.347m60.678 0c4.988 3.623 9.047 3.191 14.816 3.175v.353c-3.7 2.15-7.887 2.285-11.641.112-1.32-.763-3.21-2-3.175-3.64m120.65 0h.352c2.732 4.142 3.86 9.33-.705 12.7 0-3.664-1.062-9.328.353-12.7m-60.678.353c-3.117 5.378-10.096 6.06-15.17 3.175l7.409-.106 7.76-3.07M38.1 170.666c4.969 3.53 3.945 8.485 3.882 13.758-.045 3.786.351 7.52.351 11.289-5.518-2.581-3.91-13.184-4.265-18.345-.147-2.146-.829-4.651.032-6.702m125.236.352c0 5.304-.665 10.592-1.026 15.875-.249 3.624.186 6.86-3.56 8.82 0-6.733-2.962-21.498 4.586-24.695M11.642 185.481c2.382.357 4.168 1.764 6.35 2.663 5.913 2.436 16.296 5.618 19.393 11.801 1.726 3.446.914 9.93 1.082 13.759.406 9.28 1.146 18.599 1.781 27.869.427 6.228 1.09 12.461 1.366 18.697.076 1.728.977 5.058-.05 6.55-.966 1.405-5.075 1.191-6.639 1.21-5.878.07-11.76.002-17.639 0-1.66 0-5.2.373-6.287-1.21-.995-1.45-.416-4.514-.416-6.197v-15.875c0-8.354.353-16.68.353-25.048 0-6.943.32-13.898.353-20.814.02-4.313-.65-9.197.353-13.405m177.8 0c1.445 11.433.705 23.744.705 35.278 0 8.244.353 16.47.353 24.694 0 5.056-.024 10.113 0 15.17.008 1.755.907 4.327-.063 5.916-1.083 1.773-4.504 1.491-6.287 1.492h-17.992c-1.683 0-5.598.38-6.693-1.212-1.108-1.611-.04-4.74-.01-6.55.107-6.417.744-13.013 1.352-19.402.96-10.081.804-20.252 1.764-30.339.302-3.182-.45-8.152 1.33-10.936 3.366-5.265 11.205-8.163 16.721-10.372 2.908-1.163 5.668-3.416 8.82-3.74m-89.606 5.645-1.764 5.998h-.705l-2.47-3.881 1.411 4.586-.352.353-5.292-2.47 2.822 4.94h-2.47v.705l2.117 1.058-5.997 1.764 5.997 1.764-1.763 1.764h2.116l-2.822 4.939 5.644-2.47-1.41 4.94 3.174-3.881c.147.996 1.226 6.779 2.926 5.614 1.319-.905 1.718-4.504 2.366-5.967l2.117 4.233h.352l-1.058-4.939 5.645 2.47-3.175-4.94h1.763l-1.058-1.057v-.706l5.645-1.411v-.353l-5.645-1.058 1.411-2.47h-2.116l3.175-4.939-5.645 2.47 1.058-4.939-2.469 4.233c-1.03-2.05-1.081-5.58-3.528-6.35m0 4.586c0 5.525.159 9.395-6.703 7.762v-.353c5.21-1.206 3.821-4.336 6.703-7.409m1.411 0c2.708 3.404 1.59 6.071 6.703 7.409v.353c-5.55 1.321-9.073-2.111-6.703-7.762m-7.055 2.47 2.822 1.764-.706 1.41h-.352l-1.764-3.174m12.7 0c.026 1.725-1.12 2.75-2.822 2.822l2.822-2.822m54.68 5.644-2.116 35.984c-2.306-.675-1.676-6.078-1.972-8.114-1.25-8.624-.387-19.955 3.383-27.87h.705m-121.708.353c4.852 10.213 5.532 25.586 2.117 36.336h-.353l-1.425-25.753-.339-10.583m53.27.353c1.741.295 3.907-.512 5.563.262 2.042.953 1.14 5.985 1.14 7.852h-.354c-1.71-4.59-2.303-5.605-6.702-7.761l.352-.353m14.817.353-3.842 1.862-2.508 5.546c-2.864-5.388 1.045-8.91 6.35-7.408M96.308 207l.706 1.411-3.528 1.764L96.308 207m10.937 3.175c-1.51-.633-2.692-1.188-3.175-2.822 1.772.076 2.564 1.248 3.175 2.822m-11.642 49.742c-1.524-.459-4.17.377-1.711 1.749 2.883 1.609 4.28-3.405 4.533-5.277 3.912-.214 5.173-8.59 6.703-2.47l-2.117.354v1.41c2.889-.07 6.008-2.862 3.095-5.532-1.614-1.478-7.57-.847-9.797-.805-.872.016-1.942.156-2.326 1.078-.457 1.096 1.212 1.851 1.54 2.81.754 2.213.176 4.44.08 6.683m4.939-5.644c-4.029-1.17-.481-5.54-.039-1.771.069.582.037 1.186.039 1.77M44.45 267.679c.456 3.586-4.313 4.331-7.056 4.556-7.351.603-14.184.54-21.519.04-2.191-.15-7.012-.412-7.998-2.862-.982-2.439 6.698-.404 7.998-.264 9.722 1.04 19.036-.066 28.575-1.47m112.65.287c2.354-.738 7.468 1.347 10.117 1.463 5.267.23 10.98.454 16.227-.046 2.654-.252 6.211-1.744 8.767-1.477 1.533.16.68 1.83 0 2.456-1.909 1.755-5.273 1.77-7.708 2.106-7.266 1-15.353.971-22.578-.366-1.604-.297-3.67-.864-4.825-2.091-.5-.53-1.018-1.726 0-2.045M7.843 272.13c1.327-.565 3.191.413 4.504.681 3.228.66 6.606.714 9.878 1.116 6.842.84 13.787-.719 20.461-1.797 1.212-.195 3.627.395 2.25 2.075-1.668 2.035-6.248 1.772-8.6 2-8.28.801-16.442.785-24.694-.46-1.009-.153-7.292-2.129-3.799-3.615m148.59 0c1.163-.553 2.933.338 4.08.61 2.916.687 5.864.527 8.82.88 7.95.952 15.159-1.35 22.915-1.623 1.329-.046 2.257 1.317 1.213 2.395-1.647 1.699-5.703 1.545-7.9 1.808a93.563 93.563 0 0 1-23.636-.205c-1.674-.229-3.799-.31-5.24-1.293-.824-.563-1.448-2.003-.251-2.572m-148.987 4.2c1.39-.314 3.171.488 4.547.72 2.887.485 5.9.717 8.82.845 5.148.225 10.402.09 15.522-.399 2.5-.239 5.959-1.606 8.4-1.179 1.806.316 2.352 5.593 1.008 6.52-1.93 1.332-7.108.363-9.408.363H15.522c-2.444 0-6.515.784-8.766-.212-1.691-.75-1.194-6.234.69-6.658m148.529.043c2.314-.834 7.222 1.113 9.83 1.178 6.165.153 12.173.397 18.345-.026 2.721-.187 6.897-1.768 9.478-1.194 1.873.416 2.454 5.42.952 6.453-1.983 1.366-7.023.416-9.372.416h-20.814c-2.456 0-6.5.777-8.767-.212-1.885-.824-1.569-5.925.348-6.615z" style="display:inline;fill:#00b3b3;fill-opacity:1;stroke:none;stroke-width:.352778;filter:url(#b)" transform="translate(21.833 17.74) scale(.84001)"/><path d="M0 283.554v.705c5.776 1.708 13.725.353 19.756.353h181.327V283.2c-1.172 0-3.108.346-4.02-.566-.933-.933-.824-3.476-.91-4.726-.208-3.047-.895-6.606-1.586-9.524-.569-2.399-2.62-3.206-2.654-5.998-.189-15.266.3-30.61-.368-45.861-.314-7.167-.34-14.33-.34-21.52 0-3.018-.627-6.584-.129-9.525.786-4.635 5.27-7.045 5.054-12.347-.21-5.2-4-7.884-5.348-12.347-1.444-4.782-.939-13.42-.222-18.345.921-6.337 7.475-9.247 6.964-16.227-.499-6.807-8.903-8.825-7.194-16.213.503-2.17 3.823-2.06 5.456-2.984 2.6-1.47 3.446-5.164 3.142-7.966-.447-4.125-5.653-.812-6.552-4.241-.956-3.647-.326-8.177-.915-11.988a93.683 93.683 0 0 0-7.42-24.694c-16.046-34.951-53.8-56.492-91.966-52.857-32.402 3.086-62.737 23.634-75.696 53.915-3.247 7.586-5.44 15.487-6.704 23.636-.575 3.706-.4 7.65-1.229 11.287-.91 3.993-6.31.821-6.648 5.294-.231 3.07 1.386 6.539 4.2 7.952 1.69.85 4.118.292 4.651 2.638 1.668 7.342-6.456 9.374-7.06 16.22-.272 3.091.983 6.77 2.895 9.173 1.444 1.815 3.513 3.231 3.98 5.644 1.006 5.212 1.117 14.268-.2 19.403-.585 2.284-2.527 3.571-3.495 5.645-3.33 7.132-1.21 11.167 2.496 17.286 1.065 1.759.613 4.374.613 6.35 0 5.067-.353 10.123-.353 15.17-.001 19.56.485 39.399-.698 58.913-.12 1.985-2.024 2.784-2.6 4.587-.89 2.791-1.359 6.596-1.657 9.524-.126 1.233.352 3.393-.348 4.433-.793 1.18-2.995.849-4.222 1.212M96.308 6.724c32.377-3.82 65.746 16.991 81.915 43.996 6.247 10.433 10.001 22.22 11.72 34.22.332 2.315 2.18 11.083-.87 11.59-5.115.848-11.023.051-16.212.051-1.528 0-4.508.561-5.79-.416-1.618-1.234-.82-5.212-1.063-6.992-.821-6.036-2.183-12.019-4.586-17.639-8.231-19.249-25.481-34.462-46.064-39.009-25.275-5.582-52.168 3.931-67.678 24.898-5.407 7.308-9.552 15.795-11.547 24.694-.733 3.274-1.068 6.557-1.46 9.878-.14 1.185.256 3.098-.666 4.02-1.153 1.153-4.289.566-5.785.566-5.2 0-11.092.782-16.22-.052-3.283-.534-1.343-8.218-1.084-10.531 1.255-11.176 4.66-22.32 10.249-32.103C32.611 33.86 49.399 18.428 71.614 11.33c8.11-2.59 16.298-3.616 24.694-4.606m3.528 11.188v-.706c-1.49-.2-5.051 1.328-3.25 3.314.803.886 2.833.274 3.956.567l5.644-11.995c-4.423 2.107-3.53 7.244-6.501 10.112-1.37 1.322-2.695-.587.151-1.292M87.49 9.798c-2.418 3.667-3.323 8.027-3.88 12.347 3.042-.567 7.606-1.978 10.583-1.058l1.764-4.233c-3.574 0-7.751.013-10.937 1.763l3.175-8.819h-.705m-20.461 3.88c-1.864 4.212.383 7.942-.537 11.973-.419 1.832-1.779.667-2.285-.33l1.763-1.412c-1.78.515-3.523 6.286-4.586 2.822l1.411-1.41c-3.968 1.426-.844 6.591 1.059 2.821 1.468.24 2.149-.08 2.822-1.41l1.058.352-1.044-7.055.339-6.35m3.528 0c-1.576 4.09-1.412 8.03-1.412 12.347l10.231-3.528c-.187-1.436 1.015-3.839 1.89-1.389 1.134 3.178-3.288 8.345-4.712 10.914 2.746-1.666 4.736-6.505 5.542-9.525.407-1.523.503-4.517-2.01-3.66-1.632.555-2.248 2.62-3.532 3.66-.214-3.855-4.461-1.582-6.703-.353l.706-8.466m50.8 8.819.352-.353v-.705c-2.272-1.137-6.31 1.96-3.175 3.527.758.38 1.37-.46 2.117-.352.66.094.062.455 0 .705 2.249-.661 3.202-3.174 4.55-4.938 1.38-1.806 3.069-3.038 4.975-4.234-4.197-.61-6.123 5.925-9.185 7.447-1.56.776-2.463-1.775.366-1.097m-30.34-4.586-2.469 2.47c.266-1.633.805-2.28 2.47-2.47m3.175 0c-1.403 4.026-4.789.056 0 0m14.464 3.528c-2.128 3.817-5.74 6.71-9.525 8.82v.352c3.243-1.034 6.523-3.795 8.713-6.35 1.642-1.917 2.474-4.819 5.398-4.586-2.373 2.816-.276 2.69 1.764 3.88l3.527-3.527c-2.22-.3-4.43-1.598-6.702-1.3-1.429.186-2.503 2.15-3.841 1.992-1.096-.13-.866-1.374-.746-2.104l2.117.353c-2.14-3.261-6.19 4.027-.705 2.47m-23.99-.353c1.253-3.641 4.73-1.183 0 0m50.8-1.411c-3.783 1.793-7.085 4.298-9.524 7.76l5.291 2.118 1.059 1.763 2.116 1.059c1.673-.269 3.097-2.338 4.234-.353l-2.117 1.058 6.57 5.533 5.072 4.345c.454 2.669 4.367 6.866 7.055 7.408v-.352l-1.41-1.059c2.534-.524 2.534-2.65 0-3.175.12-1.58-.348-2.16-1.765-2.822l8.467-2.117v-.352c-3.266 0-10.373 3.23-12.7 1.058 3.03-.632 1.645-2.8-.706-3.175v-.353l8.467-2.822v-.353l-12.347 2.822v-.352c2.33-1.11 1.7-2.904-.706-3.175-.32-1.484-1.006-1.879-2.47-2.117-.44-2.607-5.263-5.153-7.76-4.939-.799-1.368-1.626-1.785-3.175-1.411l6.702-5.644-.352-.353m-19.05 1.058c-2.949 3.51-4.404-1.843 0 0m-62.442.353c-.657 5.09-1.323 8.884.01 13.859.333 1.243-.363 3.382 1.44 3.79 2.29.518 3.838-3.425 1.373-4.244.076.641.505 1.765.048 2.328-.593.732-1.712.28-1.841-.59-.164-1.098 1.091-2.465 1.44-3.501-5.458.863-1.452-9.037-2.47-11.642m19.403 2.822-.353-.353c1.243-3.513 3.949-1.091.353.353m-3.528 1.058 1.059-2.822c2.545.982.705 2.394-1.059 2.822m6.703-2.469-.353.353.353-.353m50.8 4.586c2.88-2.695 4.193 2.334 0 0m6.703 1.058-3.528.706c1.052-1.188 2.112-1.535 3.528-.706m2.822 1.764c-3.455 2.747-4.212-2.702 0 0M21.52 36.256l-.353 6.35c-4.309-1.622-3.329 4.319-.39 3.206 4.771-1.806.137-10.255 2.217-13.323 1.703-2.512 6.61 2.068 6.993-2.935-1.003.324-1.75 1.242-2.838 1.298-1.345.07-2.851-.87-4.139-.163-1.473.809-1.677 3.22-2.736 4.472-2.74 3.236-6.862 1.522-7.22-2.432.941.417 2.083 1.172 3.154.826 1.736-.563 1.69-3.066.252-3.937-1.702-1.03-3.634.916-4.203 2.405-1.354 3.54 1.847 6.81 5.382 6.009 1.394-.316 2.631-1.118 3.88-1.776m19.757-5.291c0 4.715 1.897 8.162 3.88 12.347l4.233-5.292c1.44.139 1.99-.43 2.47-1.764h.353l.352 13.053h.353c1.133-6.096.312-11.01-1.058-16.933h-.353l-.362 3.455-1.54.031.491-2.428c-2.211 1.4-1.335 3.445-1.764 5.645h-.353c-1.062-2.62-2.691-2.012-3.527.352l-3.175-8.466m135.819.705c1.429 2.51 3.427 3.818.706 6.35l-2.117-1.41c.321 4.16 3.61 1.602 5.292 0 .21 6.455 9.306.761 4.506-4.183-.643-.664-1.454-1.128-2.39-1.177-1.915-.1-4.01.435-5.997.42m-39.158 1.411c4.04-1.234 2.5 2.831 0 0m21.872 119.592-.353-.353c.549-2.695 1.434-5.706 1.366-8.466-.082-3.303-1.402-7.02-1.14-10.231.18-2.21 1.707-4.287 2.441-6.35 1.503-4.218 1.386-11.605-3.02-14.111 1.645 5.057 1.834 11.04-2.116 15.17-3.79-5.272-10.284-9.025-16.934-9.154-6.621-.128-13.994 3.804-14.755 10.917-.597 5.574 3.43 7.035 5.583 11.29-7.317 2.162-12.7-2.319-12.7-9.526h-.353c-2.456 5.262-.825 8.376 4.586 10.936v.353c-2.3.958-4.494 2.364-7.055 2.454-4.877.171-6.872-4.65-5.645-8.804-3.334 1.746-3.857 6.235-.69 8.59 1.97 1.465 4.372 1.288 6.688 1.288-1.34 2.818-5.86 8.384-9.427 5.138-1.277-1.162-1.452-3.204-1.862-4.785h-.706c-1.806 6.096 3.22 7.02 7.761 6.35-.141 3.292-.897 6.28.247 9.525 2.589 7.34 11.303 9.492 17.39 4.752 4.336-3.377 5.25-9.673.708-13.22.591 2.587 1.452 5.73-.23 8.11-4.572 6.46-17.965 4.433-17.377-4.581.947-14.529 17.641-15.693 27.485-9.046 7.9 5.336 8.819 14.796 8.819 23.51-3.697-1.895-2.528-7.892-6.35-9.878 0 5.45 4.27 7.757 5.404 12.7 1.313 5.719-.808 11.847-.465 17.639-5.938-3.241-2.883-11.109-8.114-14.464l2.47 9.878c-4.586-2.615-8.925-8.896-7.179-14.464.627-1.998 2.6-2.846 3.538-4.6.762-1.424.232-3.06.113-4.573-5.487 5.75-5.19 11.513-3.528 18.698-1.522-.622-3.237-1.572-4.939-1.258-6.71 1.236-3.033 7.235 1.058 8.666-1.359-2.083-3.7-9.507 1.764-7.279 3.241 1.322 5.74 5.41 7.409 8.337-1.54 0-3.14-.142-4.587.483-7.956 3.434-.655 14.476 4.587 8.69-1.402-.001-2.986.172-4.096-.86-3.47-3.222-.544-8.882 4.095-6.87 5.058 2.193 6.55 9.62 7.206 14.432 1.673 12.295 1.902 26.49.302 38.806-.505 3.888-.462 9.749-2.87 13.016-1.666 2.26-4.711 1.636-6.717 3.35-3.219 2.751-3.852 7.189-7.798 9.57-4.263 2.573-9.631 3.043-14.464 3.376-8.88.612-17.899.426-26.811.32-6.71-.08-14.982-.977-20.007-5.851-2.195-2.13-2.894-5.447-5.107-7.414-2.333-2.075-5.848-1.078-7.352-4.374-4.497-9.85-3.285-24.074-2.826-34.57.334-7.628-.23-16.346 2.377-23.637 1.053-2.945 3.444-6.773 6.81-7.329 4.167-.688 5.885 3.91 3.298 6.855-1.139 1.296-2.784 1.178-4.357 1.18 4.664 5.884 12.533-5.128 4.586-8.579-1.379-.598-2.76-.593-4.233-.594.714-2.747 3.684-6.93 6.35-8.082 5.812-2.51 3.937 4.432 2.47 7.024 4.03-1.325 7.33-6.233 1.763-8.463-1.926-.772-3.76.378-5.644.702 1.585-5.64 2.402-14.662-3.881-17.992 0 1.511-.231 3.245.615 4.581 1 1.58 2.743 2.361 3.335 4.239 1.65 5.237-2.367 12.832-7.478 14.464l2.822-10.231c-4.908 3.774-2.11 11.656-8.113 14.464 0-5.88-2.064-12.257-.275-17.992.877-2.815 2.976-4.581 4.378-7.055.968-1.707 1.331-3.888-.576-4.94-.844 2.93-2.492 8.8-5.291 10.231 0-10.16 1.792-21.264 12.347-25.797 8.82-3.789 19.833-3.063 23.39 7.1.674 1.924 1.204 3.96.769 5.997-1.704 7.987-15.786 8.164-18.466.704-.729-2.027.285-4.114 1.01-5.995-4.13 1.972-3.78 7.77-1.274 10.934 5.945 7.504 17.448 4.986 19.654-4.232.694-2.9-.018-5.594-.389-8.466 1.983.669 4 1.607 5.996.403 2.206-1.332 3.852-4.874 1.06-6.4-.195 8.051-8.878 5.075-10.936-.353 2.255-.001 4.744-.052 6.67-1.4 3.27-2.29 2.393-6.621-.673-8.478 3.212 8.621-7.251 10.495-12.7 5.997 4.476-2.65 8.176-6.146 3.88-10.936 1.442 7.762-5.998 11.12-12.7 9.525v-.705c7.431-5.076 7.85-14.656-.352-19.42-4.508-2.617-10.374-2.205-15.17-.679-3.089.983-5.78 2.704-8.114 4.933-.703.67-1.893 2.206-3.036 1.698-1.088-.484-1.463-2.448-1.751-3.466-.985-3.475-1.055-6.738-.151-10.23-5.455 7.102-1.89 11.77-.517 19.402.59 3.277-.057 6.627-.441 9.878-.181 1.535 1.77 8.789.14 9.26-3.913 1.13-4.799-5.58-4.826-7.849-.092-7.747-.562-15.555-1.09-23.283-.233-3.384-1.471-7.955-.563-11.268.475-1.732 2.757-1.623 4.122-2.28a8.205 8.205 0 0 0 4.399-5.502c.386-1.674.473-4.618-1.597-5.18-1.38-.374-3.603.415-4.354-1.25-1.533-3.403.635-10.217 1.428-13.678 8.042-35.08 45.27-56.126 79.499-46.866 22.917 6.199 40.84 25.051 45.786 48.277.664 3.117 2.6 9.256 1.273 12.295-.779 1.783-3.255.756-4.688 1.372-2.484 1.068-1.378 5.715-.36 7.5.838 1.466 2.272 2.725 3.85 3.329 1.08.413 2.817.31 3.518 1.368 1.448 2.185-.139 7.947-.312 10.472-.558 8.146-.178 16.611-1.24 24.694-.516 3.93-1.058 7.345-5.494 8.467m-19.05-117.475c3.747-1.317 2.465 3.082 0 0m-41.98 4.586-2.823-1.411v.706l1.411 1.763c-3.476.316-3.35 2.712 0 3.175l-1.41 2.47.352.353 2.47-1.764c.494 3.807 3.138 4.063 3.174 0l3.175 1.41-1.764-2.469c3.68-.17 3.61-2.877 0-3.175l1.764-2.469c-1.345-.196-1.815.246-2.47 1.411-1.564-2.883-3.262-4.757-3.88 0m-53.622 2.117c.004-4.866 3.403-2.537 0 0m99.836-2.822c4.426-1.014 2.901 3.724 0 0m-104.07.705-2.469 3.528c1.186-.839 2.788-1.941 2.47-3.528m.705 1.764c.971 3.458-1.363 4.789-.352 1.058-2.011.652-2.086 8.947-2.47 2.47-1.186 1.047-2.03 4.73.682 4.421 1.269-.144 3.153-3.306 3.551-4.421h.353l2.47 12.347h.705c-.362-4.584-.618-13.053-4.939-15.875m107.95 2.117c3.983-.646 2.137 3.484 0 0m2.117 2.47c4.297.014 1.964 3.283 0 0m-75.142 6.35-.352 2.116-1.764-1.059-.353.353v.706l1.764 1.41-3.175.706v.353c2.842.156 3.442 1.802 4.233 4.234l.706-3.175 2.822 1.41c-.524-1.251-1.13-1.935-.353-3.174l-1.411-.353 1.764-2.822-.353-.353h-.705L77.612 54.6l-.353-2.117h-.706m46.92 0v2.117l-2.822-1.411 1.763 2.822-2.116.353v.352l1.41.353-1.41 2.47 3.175-1.411.705 3.527h.353c-.139-2.744.998-4.428 3.88-4.586v-.353l-3.174-.705 1.764-2.47-2.117 1.059-.706-2.117h-.705M84.667 68.712l3.89 7.408-.095 4.682 5.377 1.517 14.112-.057 4.725-1.554-.186-4.588 3.927-7.055c-1.179-.292-2.756.262-3.741-.543-1.227-1.002-1.615-3.068-2.42-4.396-1.554-2.566-3.495-5.062-5.363-7.409-1.015-1.275-2.54-3.346-4.35-3.394-1.912-.052-3.65 2.42-4.705 3.747-1.85 2.327-3.902 4.806-5.345 7.409-.722 1.303-1.045 3.445-2.377 4.287-.986.622-2.377.05-3.449-.054m14.817-13.406c1.758 5.95-.367 12.157-2.47 17.64h-.352c-1.81-3.042-3.71-2.937-4.586.705-6.363-3.039 1.491-12.224 4.164-15.522.964-1.19 1.853-2.173 3.244-2.823m9.525 18.345c-1.202-4.144-2.468-3.33-4.939-.706-.896-2.02-1.896-4.225-2.496-6.35a17.656 17.656 0 0 1-.678-4.586c-.014-1.213-.658-5.609.563-6.288 1.353-.752 3.428 2.644 4.092 3.466 2.523 3.127 9.405 11.539 3.458 14.464m-46.214-9.172-.353 2.116-2.47-1.058 1.412 2.822h-2.47v.706c2.608.173 6.371 2.775 7.762-1.059l-1.764.353-1.411-3.88h-.706m74.789 0c-.606 2.55-1.383 3.375-3.88 3.88v.706c3.888.733 3.967 2.227 7.76-.353v-.353h-2.116l1.764-2.822-2.823 1.058-.705-2.116m-37.042 3.54c1.394.169 1.72 2.453 1.985 3.515.782 3.146.548 5.57-3.357 4.887-2.768-.485-.6-8.64 1.372-8.402m12.7 2.81-2.116 6.35-1.764-.353 3.88-5.997m-25.047.352 3.175 5.645c-2.094.317-3.471-3.874-3.175-5.645m5.751.971c1.916-.565 3.37 3.932 1.253 4.514-2.72.748-3.108-3.967-1.253-4.514m12.305-.032c2.06-.756 2.303 3.826.882 4.491-2.968 1.39-3.027-3.703-.882-4.49m-.77 5.41v.706h-10.23v-.706h10.23m4.233 2.47v.353c-6.072 1.144-12.292 1.49-18.344 0 4.156-3.094 13.728-1.817 18.344-.353m40.217-1.059-.705 2.47-2.117-1.058 1.411 2.116-2.822.353v.353l2.822.353-1.411 2.822 2.47-1.059.705 2.47L153.106 80l-2.47 1.41-.705-2.469m-99.484.353v2.117L47.272 80l3.88 7.76.354-2.469 2.469.706-2.117-2.117 3.175-1.41-2.47.352 1.06-2.47-2.117 1.059-.353-2.117h-.706m43.04 21.52c-3.576.03-8.226 1.407-10.584 4.233 2.247.954 5.324.378 7.34 1.564 1.42.834-.097 2.461.992 3.365 1.863 1.546 8.674.363 11.07.363 2.752 0 8.392 1.278 7.762-2.823 3.345-.63 8.156-1.218 9.877-4.586-7.837-1.866-15.107-2.116-23.283-2.116v-1.411h14.111c-1.15-1.769-8.33-1.059-10.583-1.059v-.353l10.23-.352c-.459-1.618-2.105-1.14-3.527-1.038-3.642.262-6.993.577-10.584-.373l2.47-7.056c-4.677 1.603-5.292 7.462-5.292 11.642m1.411-4.234 1.764 1.411v.353l-1.411 1.764h-.353v-3.528m-62.089 7.761c2.64 3.431 5.698-1.482 2.454-3.106-2.923-1.464-4.411 3.229-6.348 4.438-3.126 1.952-7.857 1.874-11.275.873-2.89-.846-4.587-5.828-7.408-5.546-4.355.434-1.872 7.066 1.41 3.694-1.521-.018-4.24-1.63-1.39-2.414 2.075-.571 2.927 2.32 1.834 3.686-3.479 4.35-11.825-3.271-8.547-7.41 1.161-1.466 6.708-.565 8.456-.565H31.75c2.333 0 6.243-.753 8.386.213 4.144 1.868-1.431 8.39-4.153 8.78-3.082.444-6.282-3.992-2.455-4.729 2.199-.423 2.475 2.812-.72 2.086m164.748-6.35c.738 3.978-.553 8.577-5.292 8.806-1.146.055-2.52.106-3.37-.804-1.973-2.111 1.526-5.437 2.916-2.922.869 1.573-1.477 1.613-2.368 1.623 2.615 3.053 5.564-2.14 2.1-3.519-2.932-1.169-4.124 2.988-5.986 4.352-2.456 1.8-5.901 1.81-8.814 1.605-2.175-.153-4.372-.828-5.881-2.475-1.178-1.285-1.94-3.637-3.997-3.687-4-.1-2.802 6.456 1.058 3.724h-2.47c.326-4.274 5.105-1.823 3.464.98-2.912 4.97-11.275-2.028-8.895-6.865.868-1.763 7.224-.818 8.96-.818h28.575m-80.787 5.645c-3.048 3.76-6.165 1.572-9.877 1.105-6.971-.877-13.92.825-20.814-.047 1.574-2.848 5.949-2.822 8.82-2.822 7.685 0 14.41.204 21.871 1.764m-8.113 5.644H92.075c.158-1.05.345-2.49 1.287-3.165 1.114-.797 3.41-.362 4.71-.362 3.803 0 10.343-1.645 10.584 3.527M34.572 148.44c-5.565-1.895-11.125-4.494-16.228-7.409-2.09-1.194-4.53-2.308-5.626-4.587-2.148-4.463-.724-12.057-.724-16.932 0-3.316-1.066-8.937.584-11.914.659-1.19 1.833-.99 2.944-.634 3.61 1.157 6.815 1.862 10.584.942 1.438-.352 4.107-2.075 5.445-.876 1.912 1.714 1.226 7.61 1.51 10.012 1.21 10.262 1.511 21.064 1.511 31.398m131.586 0c.777-9.836 1.319-19.775 1.75-29.634.125-2.837-.594-9.27 1.334-11.524 1.246-1.457 3.94.161 5.383.574 3.705 1.06 7.028.376 10.583-.836 1.145-.39 2.424-.695 3.165.55 1.603 2.69.363 9.19.363 12.295 0 4.717 1.816 11.77.038 16.214-.814 2.033-3.564 3.35-5.33 4.45-5.081 3.163-11.437 6.521-17.286 7.91m-123.12-36.688c2.515-.447 4.748-2.069 7.41-1.598 4.064.72 6.484 7.305 1.058 7.439-1.455.036-2.74-1.216-3.881-1.96.259 4.725 7.675 6.082 9.277 1.409 2.738-7.986-9.77-10.577-13.863-5.29m110.42 3.528h-.353c-1.998 2.59-7.115 3.3-6.909-1.412.256-5.835 8.554-3.073 11.495-2.116-2.702-5.622-14.845-2.935-13.981 3.88.732 5.78 9.444 5.48 9.747-.352m-143.227 3.175c1.446 4.893.352 11.475.352 16.58-5.633-4.052-7.941-13.242-.352-16.58m179.916 15.875.353-15.875c7.617 2.432 6.244 13.074-.353 15.875m-33.514 23.636 9.173-7.548 13.758-6.32 12.7-8.71c-2.144 4.624-7.378 6.964-11.642 9.165-7.377 3.808-15.761 7.494-20.33 14.824-5.15 8.264-2.953 20.66-2.953 29.986 0 2.455.146 4.963-.1 7.408-.055.555-.388 1.998.45 2.194.873.203 1.653-1.662 2.044-2.192 1.536-2.087 3.878-3.74 6.073-5.077 6.287-3.83 13.417-6.037 19.755-9.746 3.543-2.072 5.995-4.974 9.172-7.404-1.761 9.346-10.227 11.645-17.991 14.967-6.987 2.991-14.282 7.824-17.484 15.02-3.667 8.24-4.286 19.387-3.23 28.222.51 4.255 2.04 8.45 2.338 12.7.322 4.604-.18 9.19-.614 13.758-.162 1.695.263 3.61-.172 5.26-.45 1.704-2.012 2.78-2.422 4.618-.566 2.54-1.38 5.169-1.64 7.76-.164 1.637.203 4.104-.774 5.533-1 1.465-4.451.818-5.988.818H54.327c-1.598 0-4.548.56-5.843-.566-1.195-1.038-.786-2.979-.919-4.373-.3-3.129-1.018-6.729-1.78-9.675-.408-1.573-2.084-2.479-2.544-4.083-.875-3.051-.43-7.057-.569-10.231-.112-2.56-.78-5.201-.654-7.761.166-3.41 1.81-6.807 2.282-10.23 1.4-10.163 1.555-22.552-2.782-32.103-3.946-8.689-13.124-12.954-21.41-16.431-6.229-2.614-13.133-5.545-13.758-13.203h.353c5.832 8.217 16.61 10.715 25.047 15.279 4.928 2.665 7.754 6.496 11.994 9.768 0-6.587-.355-13.152-.352-19.755.004-9.27.89-17.302-6.058-24.68-8.042-8.542-22.49-9.576-28.867-19.77l13.405 9 14.464 6.644 7.761 6.934.353-.353c-3.91-12.018-5.69-35.534 12.7-36.336v.353c-9.654 4.574-15.245 13.094-12.243 23.988.513 1.864 1.842 8.254 4.165 8.597 1.974.292 5.096-5.663 6.668-6.868 4.886-3.744 14.185-6.344 20.107-3.845v.353a30.511 30.511 0 0 0-8.82 1.312c-20.244 6.105-15.68 30.084-14.17 45.96.271 2.853-.27 5.63-.293 8.466 2.836-3.717 3.322-8.495 8.467-10.23-.944 4.877-5.984 9.034-7.507 14.111-1.19 3.963-.987 7.94-1.373 11.994-.898 9.435-.621 18.789.028 28.223.349 5.059.498 11.309 3.001 15.874 1.77 3.227 5.12 2.471 7.428 4.773 3.123 3.117 3.754 7.182 7.948 9.572 3.71 2.115 8.191 2.5 12.347 3.041 10.485 1.366 21.237 1.318 31.75.313 5.1-.487 10.554-.505 15.17-3.063 2.438-1.352 4.712-3.443 6.184-5.816.834-1.343 1.247-3.28 2.43-4.356 2.191-1.994 5.06-1.305 7.031-4.111 2.618-3.727 2.618-9.406 3.152-13.758 1.205-9.817.957-19.794.284-29.633-.338-4.94-.257-9.714-1.917-14.464-1.644-4.702-5.348-7.934-7.287-12.347 4.485 1.32 7.452 5.746 8.114 10.23h.353c.683-4.141.073-8.808.384-13.053 1.112-15.179 4.358-35.36-14.143-41.626-2.81-.952-5.85-1.638-8.82-1.765v-.353c6.412-1.19 14.025.078 19.403 3.896 1.806 1.281 4.632 7.238 6.698 7.27 2.255.037 4.1-7.31 4.508-9.05 1.555-6.61.314-14.42-4.916-19.185-2.32-2.115-5.348-2.903-7.7-4.803 3.331-.695 7.587 2.016 9.872 4.247 5.525 5.396 7.006 14.794 5.848 22.211-.547 3.504-2.154 6.754-2.668 10.23m5.292-36.335-2.47 9.525c-2.825-.939 1.252-7.31 1.764-9.525h.706m-122.414.352c1.05 2.707 3.57 6.267 3.175 9.173h-1.058c-1.174-2.595-3.328-6.279-2.117-9.173m18.345 6.35c-5.62 2.925-2.432 9.699 2.116 11.995 1.644.83 4.152.618 5.292 2.116l-11.995 4.94c-.855-3.307-1.794-6.171-3.478-9.173-1.131-2.015-3.068-4.242-2.819-6.703.238-2.345 2.75-4.427 4.534-5.72 4.745-3.439 12.33-5.682 17.991-2.957 4.666 2.247 6.5 8.337 3.25 12.525-4.91 6.324-19.44 1.669-14.891-7.023m89.958 19.05-12.347-4.939c1.138-1.496 3.646-1.18 5.291-2.004 4.976-2.488 7.778-9.178 2.117-12.46 5.687 8.754-9.462 13.681-14.68 7.394-3.502-4.222-1.255-10.31 3.391-12.543 5.73-2.754 13.229-.392 17.992 3.089 1.735 1.268 3.939 3.018 4.433 5.236.487 2.184-1.141 4.23-2.167 5.997-1.859 3.203-3.53 6.516-4.03 10.23m-101.6-12.7c2.56 3.794 8.906 12.609 3.88 16.58 0-3.897-.769-6.757-2.56-10.23-1.018-1.974-2.779-4.202-1.32-6.35m109.008 0c.545 3.311-1.626 5.576-2.867 8.467-1.151 2.682-1.366 5.237-1.366 8.114-5.321-3.965 1.248-12.472 3.528-16.58h.705m-95.955 3.174c3.708 1.186 6.747 1.361 10.583 1.059v.352c-4.015 1.636-7.256 1.172-10.936-1.058l.353-.353m-13.406 2.47c2.02 3.838 3.378 6.89 2.822 11.289h-.352c-1.687-2.89-3.872-7.948-2.47-11.29m109.714 0c-.01 3.93-.869 7.857-2.822 11.29-1.958-3.268.33-8.873 2.822-11.29m-118.533 50.8c-6.22-1.422-12.974-6.024-18.698-8.906-1.929-.971-5.228-2.258-6.34-4.21-1.306-2.296-.362-7.21-.362-9.814 0-5.42.287-10.831.351-16.228.041-3.454-.45-7.207.354-10.583 5.35 2.025 10.88 5.67 15.875 8.52 2.166 1.235 4.856 2.446 6.303 4.565 1.846 2.701 1.453 7.729 1.458 10.904.008 4.973.295 10.216.766 15.17.314 3.3 1.06 7.349.293 10.583m151.694-49.742c1.088 8.61.706 17.773.706 26.458 0 2.736.96 7.747-.416 10.166-2.068 3.634-9.675 5.888-13.343 7.473-2.754 1.191-5.504 2.606-8.114 4.085-.777.44-2.373 1.708-3.315 1.15-.976-.578-.572-2.912-.465-3.824.409-3.462.564-7.096.607-10.583.06-4.896.533-9.942.997-14.817.192-2.021-.402-4.468.525-6.348 1.074-2.181 3.88-3.535 5.885-4.727 5.21-3.1 11.261-6.956 16.933-9.033m-24.694 15.17c0 2.208 1.044 6.94-1.764 7.408-.497 2.784-1.694 7.7-3.88 9.525 0-5.811.632-13.066 5.644-16.933m-127 .352c4.495 4.7 5.291 9.627 5.291 15.875h-.352c-1.708-3-2.894-6.784-3.175-10.23l-1.764 1.41v-7.055M9.878 163.61l.353 12.347c-4.695-2.457-4.004-9.217-.353-12.347m60.678 0c4.988 3.623 9.047 3.191 14.816 3.175v.353c-3.7 2.15-7.887 2.285-11.641.112-1.32-.763-3.21-2-3.175-3.64m120.65 0h.352c2.732 4.142 3.86 9.33-.705 12.7 0-3.664-1.062-9.328.353-12.7m-60.678.353c-3.117 5.378-10.096 6.06-15.17 3.175l7.409-.106 7.76-3.07M38.1 170.666c4.969 3.53 3.945 8.485 3.882 13.758-.045 3.786.351 7.52.351 11.289-5.518-2.581-3.91-13.184-4.265-18.345-.147-2.146-.829-4.651.032-6.702m125.236.352c0 5.304-.665 10.592-1.026 15.875-.249 3.624.186 6.86-3.56 8.82 0-6.733-2.962-21.498 4.586-24.695M11.642 185.481c2.382.357 4.168 1.764 6.35 2.663 5.913 2.436 16.296 5.618 19.393 11.801 1.726 3.446.914 9.93 1.082 13.759.406 9.28 1.146 18.599 1.781 27.869.427 6.228 1.09 12.461 1.366 18.697.076 1.728.977 5.058-.05 6.55-.966 1.405-5.075 1.191-6.639 1.21-5.878.07-11.76.002-17.639 0-1.66 0-5.2.373-6.287-1.21-.995-1.45-.416-4.514-.416-6.197v-15.875c0-8.354.353-16.68.353-25.048 0-6.943.32-13.898.353-20.814.02-4.313-.65-9.197.353-13.405m177.8 0c1.445 11.433.705 23.744.705 35.278 0 8.244.353 16.47.353 24.694 0 5.056-.024 10.113 0 15.17.008 1.755.907 4.327-.063 5.916-1.083 1.773-4.504 1.491-6.287 1.492h-17.992c-1.683 0-5.598.38-6.693-1.212-1.108-1.611-.04-4.74-.01-6.55.107-6.417.744-13.013 1.352-19.402.96-10.081.804-20.252 1.764-30.339.302-3.182-.45-8.152 1.33-10.936 3.366-5.265 11.205-8.163 16.721-10.372 2.908-1.163 5.668-3.416 8.82-3.74m-89.606 5.645-1.764 5.998h-.705l-2.47-3.881 1.411 4.586-.352.353-5.292-2.47 2.822 4.94h-2.47v.705l2.117 1.058-5.997 1.764 5.997 1.764-1.763 1.764h2.116l-2.822 4.939 5.644-2.47-1.41 4.94 3.174-3.881c.147.996 1.226 6.779 2.926 5.614 1.319-.905 1.718-4.504 2.366-5.967l2.117 4.233h.352l-1.058-4.939 5.645 2.47-3.175-4.94h1.763l-1.058-1.057v-.706l5.645-1.411v-.353l-5.645-1.058 1.411-2.47h-2.116l3.175-4.939-5.645 2.47 1.058-4.939-2.469 4.233c-1.03-2.05-1.081-5.58-3.528-6.35m0 4.586c0 5.525.159 9.395-6.703 7.762v-.353c5.21-1.206 3.821-4.336 6.703-7.409m1.411 0c2.708 3.404 1.59 6.071 6.703 7.409v.353c-5.55 1.321-9.073-2.111-6.703-7.762m-7.055 2.47 2.822 1.764-.706 1.41h-.352l-1.764-3.174m12.7 0c.026 1.725-1.12 2.75-2.822 2.822l2.822-2.822m54.68 5.644-2.116 35.984c-2.306-.675-1.676-6.078-1.972-8.114-1.25-8.624-.387-19.955 3.383-27.87h.705m-121.708.353c4.852 10.213 5.532 25.586 2.117 36.336h-.353l-1.425-25.753-.339-10.583m53.27.353c1.741.295 3.907-.512 5.563.262 2.042.953 1.14 5.985 1.14 7.852h-.354c-1.71-4.59-2.303-5.605-6.702-7.761l.352-.353m14.817.353-3.842 1.862-2.508 5.546c-2.864-5.388 1.045-8.91 6.35-7.408M96.308 207l.706 1.411-3.528 1.764L96.308 207m10.937 3.175c-1.51-.633-2.692-1.188-3.175-2.822 1.772.076 2.564 1.248 3.175 2.822m-11.642 49.742c-1.524-.459-4.17.377-1.711 1.749 2.883 1.609 4.28-3.405 4.533-5.277 3.912-.214 5.173-8.59 6.703-2.47l-2.117.354v1.41c2.889-.07 6.008-2.862 3.095-5.532-1.614-1.478-7.57-.847-9.797-.805-.872.016-1.942.156-2.326 1.078-.457 1.096 1.212 1.851 1.54 2.81.754 2.213.176 4.44.08 6.683m4.939-5.644c-4.029-1.17-.481-5.54-.039-1.771.069.582.037 1.186.039 1.77M44.45 267.679c.456 3.586-4.313 4.331-7.056 4.556-7.351.603-14.184.54-21.519.04-2.191-.15-7.012-.412-7.998-2.862-.982-2.439 6.698-.404 7.998-.264 9.722 1.04 19.036-.066 28.575-1.47m112.65.287c2.354-.738 7.468 1.347 10.117 1.463 5.267.23 10.98.454 16.227-.046 2.654-.252 6.211-1.744 8.767-1.477 1.533.16.68 1.83 0 2.456-1.909 1.755-5.273 1.77-7.708 2.106-7.266 1-15.353.971-22.578-.366-1.604-.297-3.67-.864-4.825-2.091-.5-.53-1.018-1.726 0-2.045M7.843 272.13c1.327-.565 3.191.413 4.504.681 3.228.66 6.606.714 9.878 1.116 6.842.84 13.787-.719 20.461-1.797 1.212-.195 3.627.395 2.25 2.075-1.668 2.035-6.248 1.772-8.6 2-8.28.801-16.442.785-24.694-.46-1.009-.153-7.292-2.129-3.799-3.615m148.59 0c1.163-.553 2.933.338 4.08.61 2.916.687 5.864.527 8.82.88 7.95.952 15.159-1.35 22.915-1.623 1.329-.046 2.257 1.317 1.213 2.395-1.647 1.699-5.703 1.545-7.9 1.808a93.563 93.563 0 0 1-23.636-.205c-1.674-.229-3.799-.31-5.24-1.293-.824-.563-1.448-2.003-.251-2.572m-148.987 4.2c1.39-.314 3.171.488 4.547.72 2.887.485 5.9.717 8.82.845 5.148.225 10.402.09 15.522-.399 2.5-.239 5.959-1.606 8.4-1.179 1.806.316 2.352 5.593 1.008 6.52-1.93 1.332-7.108.363-9.408.363H15.522c-2.444 0-6.515.784-8.766-.212-1.691-.75-1.194-6.234.69-6.658m148.529.043c2.314-.834 7.222 1.113 9.83 1.178 6.165.153 12.173.397 18.345-.026 2.721-.187 6.897-1.768 9.478-1.194 1.873.416 2.454 5.42.952 6.453-1.983 1.366-7.023.416-9.372.416h-20.814c-2.456 0-6.5.777-8.767-.212-1.885-.824-1.569-5.925.348-6.615z" style="display:inline;fill:#00b3b3;fill-opacity:1;stroke:none;stroke-width:.352778" transform="translate(21.833 17.74) scale(.84001)"/></g></svg>