<svg xmlns="http://www.w3.org/2000/svg" xml:space="preserve" width="102.938" height="99.779" viewBox="0 0 27.236 26.4"><defs><filter id="b" width="1.019" height="1.109" x="-.01" y="-.055" style="color-interpolation-filters:sRGB"><feGaussianBlur stdDeviation=".102"/></filter><filter id="a" width="1.078" height="1.437" x="-.039" y="-.219" style="color-interpolation-filters:sRGB"><feGaussianBlur stdDeviation=".41"/></filter><filter id="d" width="1.064" height="1.064" x="-.032" y="-.032" style="color-interpolation-filters:sRGB"><feGaussianBlur stdDeviation=".206"/></filter><filter id="c" width="1.226" height="1.226" x="-.113" y="-.113" style="color-interpolation-filters:sRGB"><feGaussianBlur stdDeviation=".825"/></filter><filter id="e" width="1.226" height="1.207" x="-.113" y="-.103" style="color-interpolation-filters:sRGB"><feGaussianBlur stdDeviation="8.409"/></filter><filter id="f" width="1.056" height="1.052" x="-.028" y="-.026" style="color-interpolation-filters:sRGB"><feGaussianBlur stdDeviation="2.102"/></filter></defs><g transform="translate(-9.689 -83.68)"><text xml:space="preserve" x="9.319" y="109.03" style="font-style:normal;font-weight:400;font-size:4.42734px;line-height:1.25;font-family:sans-serif;fill:#00b3b3;fill-opacity:1;stroke:none;stroke-width:.110684;filter:url(#a)" transform="translate(.92)"><tspan x="9.319" y="109.03" style="fill:#00b3b3;fill-opacity:1;stroke-width:.110684">HISTÓRICO</tspan></text><text xml:space="preserve" x="9.319" y="109.03" style="font-style:normal;font-weight:400;font-size:4.42734px;line-height:1.25;font-family:sans-serif;fill:#00b3b3;fill-opacity:1;stroke:none;stroke-width:.110684;filter:url(#b)" transform="translate(.92)"><tspan x="9.319" y="109.03" style="fill:#00b3b3;fill-opacity:1;stroke-width:.110684">HISTÓRICO</tspan></text><text xml:space="preserve" x="9.319" y="109.03" style="font-style:normal;font-weight:400;font-size:4.42734px;line-height:1.25;font-family:sans-serif;fill:#00b3b3;fill-opacity:1;stroke:none;stroke-width:.110684" transform="translate(.92)"><tspan x="9.319" y="109.03" style="fill:#00b3b3;fill-opacity:1;stroke-width:.110684">HISTÓRICO</tspan></text><rect width="18.336" height="18.336" x="14.139" y="85.753" ry="2.761" style="fill:none;fill-opacity:1;stroke:#00b3b3;stroke-width:.184599;stroke-opacity:1;filter:url(#c)"/><rect width="18.336" height="18.336" x="14.139" y="85.753" ry="2.761" style="fill:none;fill-opacity:1;stroke:#00b3b3;stroke-width:.184599;stroke-opacity:1;filter:url(#d)"/><rect width="18.336" height="18.336" x="14.139" y="85.753" ry="2.761" style="fill:none;fill-opacity:1;stroke:#00b3b3;stroke-width:.184599;stroke-opacity:1"/><path d="M63.77 246.24c-.929-.597-1.125-.987-1.999-3.99-.14-.484-.376-1.261-.521-1.725-.146-.464-.265-.95-.265-1.079 0-.488-.724-1.151-1.375-1.26-1.144-.191-4.957-1.44-7.092-2.321-1.309-.542-5.08-2.438-6.167-3.102l-1.14-.697-1.241.645a98.21 98.21 0 0 0-2.211 1.188c-2.84 1.59-3.513 1.782-4.61 1.316-.413-.175-2.428-2.068-5.645-5.303-5.328-5.358-5.563-5.668-5.376-7.087.092-.702.075-.733-.449-.838-.3-.06-16.967-.11-37.038-.11-28.866 0-36.575-.045-36.887-.22-.908-.507-1.353-1.074-1.544-1.967-.138-.644-.177-24.355-.139-83.537.051-78.818.068-82.665.367-83.213.173-.315.628-.772 1.011-1.014l.697-.44H2.958c45.936 0 50.867.027 51.377.279.31.153 3.69 3.427 7.512 7.276C83.135 80.484 89.29 86.72 89.71 87.27l.466.612.089 27.619.088 27.618.793.384c.437.211 1.588.762 2.558 1.224.97.462 2.346 1.182 3.057 1.6 1.24.729 2.06.935 2.42.608.092-.083.684-.43 1.314-.77s1.782-.964 2.558-1.386c1.696-.922 2.972-1.05 3.883-.392.69.498 9.784 9.666 10.183 10.265.195.293.308.803.308 1.395.001.979-.075 1.15-2.318 5.197-.933 1.684-.97 1.826-.616 2.341.58.842 2.39 4.34 3.099 5.992.208.486.455 1.02.548 1.189.094.168.17.394.17.502 0 .108.113.447.25.752.138.306.5 1.35.807 2.32l.81 2.558c.138.436.251.923.25 1.08-.001.533.024.544 4.498 1.86.485.142 1.15.327 1.476.41.83.21 1.836 1.068 2.086 1.782.29.827.315 14.21.029 15.167-.35 1.167-1.041 1.6-3.767 2.366-.582.163-1.376.399-1.764.523-.388.125-1.034.317-1.435.426-.898.246-.983.357-1.376 1.786-.443 1.609-1.322 4.43-1.51 4.85-.088.194-.448 1.064-.8 1.933-.56 1.384-2.439 5.147-3.357 6.728-.351.604-.4.444.842 2.716 2.073 3.795 2.08 3.81 2.08 4.788 0 .589-.111 1.122-.289 1.39-.159.24-2.44 2.607-5.071 5.26-4.853 4.894-5.602 5.5-6.782 5.493-.466-.003-1.613-.533-3.998-1.846-2.89-1.591-2.857-1.579-3.33-1.268-.236.154-.893.533-1.46.842-4.16 2.268-7.005 3.457-11.085 4.635-2.784.804-2.528.6-3.005 2.402-.166.63-.405 1.464-.53 1.852a73.923 73.923 0 0 0-.53 1.764c-.166.582-.495 1.317-.73 1.632-.835 1.121-.69 1.104-8.91 1.09-6.771-.012-7.506-.042-7.94-.32zm12.435-5.624c.155-.17.362-.627.461-1.014.099-.386.298-1.1.443-1.585.145-.485.377-1.278.516-1.764.334-1.163.567-1.687.949-2.125.36-.414 1.378-.96 1.797-.964.155-.002 1.075-.204 2.045-.45 2.56-.65 2.845-.737 4.763-1.446 2.638-.974 5.442-2.363 8.126-4.023 2.853-1.765 3.035-1.758 6.69.269l1.815 1.003c.415.229.851.416.968.416.117 0 1.543-1.328 3.169-2.952 3.084-3.08 3.277-3.379 2.718-4.196-.26-.38-1.711-3.045-2.35-4.317-.22-.437-.402-.963-.405-1.169-.008-.526.447-1.554 1.197-2.703.351-.538.737-1.137.857-1.331.35-.564 2.88-5.673 2.88-5.816 0-.07.113-.378.252-.684.497-1.092 1.611-4.863 2.129-7.203.4-1.812.96-2.388 2.86-2.945 2.204-.647 2.568-.758 3.32-1.014.39-.133.849-.242 1.018-.242.54 0 .65-.82.65-4.85 0-4.296-.017-4.376-1.026-4.606-1.05-.24-4.22-1.184-4.862-1.449-1.164-.48-1.614-1.084-1.955-2.624-.524-2.363-1.636-6.127-2.134-7.223-.139-.306-.253-.61-.253-.676 0-.153-2.16-4.545-2.69-5.471a48.46 48.46 0 0 0-1.07-1.735c-1.06-1.642-1.268-2.296-1.01-3.173.12-.405.358-.975.53-1.266.171-.29.69-1.243 1.15-2.116.463-.874.91-1.663.995-1.756.085-.092.155-.369.155-.615 0-.344-.685-1.134-2.953-3.404-1.623-1.626-3.074-2.957-3.223-2.957-.15 0-.428.106-.62.236-.191.13-1.141.66-2.112 1.179-3.935 2.104-3.692 2.103-7.009.048-4.226-2.619-8.334-4.26-14.235-5.685-1.835-.443-2.478-.984-2.916-2.452-.164-.55-.36-1.197-.435-1.44-.076-.242-.276-.917-.446-1.499a51.83 51.83 0 0 0-.517-1.676l-.209-.617-4.138-.05c-4.378-.052-4.931-.008-4.931.4 0 .14-.11.595-.246 1.011a65.557 65.557 0 0 0-.547 1.814c-1.061 3.716-1.31 4.016-3.793 4.568-.728.162-1.562.364-1.853.449-.29.084-1.124.324-1.852.532-.727.208-1.46.454-1.629.546-.168.092-.394.167-.502.167-.108 0-.447.11-.752.243-.306.134-.993.42-1.526.634-1.356.545-5.133 2.535-6.517 3.434-1.654 1.075-1.844 1.157-2.664 1.157-.735 0-1.022-.132-5.034-2.318-.687-.374-1.36-.68-1.494-.68-.277 0-6.164 5.906-6.164 6.185 0 .1.144.475.32.834.302.618.594 1.157 1.985 3.652.466.836.591 1.262.595 2.03.005.899-.088 1.122-1.243 2.998-1.633 2.652-2.727 4.803-3.676 7.23-.17.437-.369.914-.44 1.06-.073.145-.309.86-.525 1.587-.216.727-.46 1.521-.54 1.764-.082.242-.281 1.036-.444 1.764-.532 2.374-.63 2.655-1.112 3.156-.588.611-1.509.976-4.71 1.863-.581.161-1.315.406-1.63.544l-.574.252v4.302c0 3.236.055 4.345.22 4.47.122.091 1.488.544 3.037 1.007 1.55.462 3.038.998 3.31 1.19.525.375 1.194 1.647 1.194 2.273 0 .208.123.828.272 1.376.698 2.557 1.22 4.286 1.475 4.878.083.194.29.71.459 1.147.898 2.314 1.774 4.048 3.432 6.79 1.393 2.306 1.492 2.535 1.491 3.44 0 .753-.122 1.188-.542 1.94-1.974 3.542-2.354 4.28-2.354 4.582 0 .274 5.89 6.178 6.164 6.178.126 0 .835-.33 1.575-.736.74-.405 1.782-.97 2.316-1.255.533-.286 1.08-.61 1.217-.719.136-.11.77-.2 1.41-.2 1.076 0 1.245.055 2.223.727 3.237 2.224 7.92 4.354 12.347 5.618.583.166 1.297.371 1.588.455.291.085.886.207 1.323.273 1.053.16 2.01.656 2.421 1.257.184.27.48.966.657 1.548.178.582.385 1.257.461 1.5.077.242.312 1.035.524 1.763.212.728.511 1.422.665 1.543.204.162 1.361.22 4.362.22 3.679 0 4.112-.03 4.366-.31zm-8.782-15.11c-.097-.034-.772-.156-1.5-.27-1.671-.261-4.643-1.005-5.813-1.454a67.288 67.288 0 0 0-1.499-.535c-.9-.311-4.589-2.106-5.539-2.695-2.508-1.554-4.571-3.201-6.831-5.455-3.6-3.59-5.87-7.004-8.039-12.093-.263-.618-1.265-3.779-1.565-4.939-1.216-4.7-1.215-12.14.003-16.757.662-2.508.77-2.85 1.528-4.806 3.246-8.377 9.833-15.426 18.08-19.35 1.698-.808 2.259-1.036 4.12-1.674 3.141-1.077 7.94-1.863 11.37-1.862 2.65.001 6.648.567 9.708 1.374.875.231 3.807 1.229 4.183 1.423.173.09 1.109.543 2.079 1.008 5.702 2.73 11.092 7.579 14.495 13.04 1.5 2.408 1.866 3.147 3.402 6.879 1.297 3.15 2.125 7.96 2.125 12.347 0 5.563-1.094 10.421-3.463 15.38-2.533 5.3-5.623 9.18-10.232 12.854-2.048 1.632-4.655 3.313-6.15 3.965-.583.254-1.416.623-1.853.82-2.086.942-5.083 1.848-8.378 2.535-.959.2-9.776.429-10.23.266zm11.642-6.411c1.765-.391 5.583-1.862 6.831-2.632.362-.223.708-.406.768-.406.17 0 3.427-2.208 4.218-2.86 5.492-4.523 9.302-10.882 10.649-17.778.517-2.647.48-2.822-.589-2.822-1.255 0-2.606-.332-3.056-.751-.552-.516-1.094-1.585-1.094-2.16 0-.692.628-1.774 1.348-2.323.557-.425.851-.505 2.162-.584l1.517-.09-.042-.883c-.066-1.366-.522-3.4-1.288-5.74-.962-2.94-2.627-6.065-4.741-8.9-1.01-1.354-4.497-4.846-5.422-5.43-.39-.246-.822-.56-.959-.697-.236-.236-3.798-2.428-3.946-2.428-.038 0-.611-.243-1.273-.54-1.58-.71-1.767-.786-2.702-1.1-2.249-.756-5.31-1.416-6.174-1.331l-.617.06-.051 1.559c-.042 1.28-.126 1.676-.47 2.222-.563.891-1.473 1.308-2.646 1.21-1.733-.143-2.403-1.034-2.553-3.395l-.1-1.595-.69-.057c-.954-.078-4.138.656-6.543 1.508-7.29 2.583-13.181 7.813-16.944 15.041-.848 1.628-1.789 4.213-2.306 6.334-.343 1.404-.735 4.049-.619 4.165.047.047.686.086 1.422.088 1.71.005 2.643.402 3.267 1.39.843 1.336.456 3.078-.865 3.894-.407.252-1.057.4-2.147.491l-1.563.13.04 1.225c.104 3.083 2.152 8.716 4.43 12.181 1.626 2.475 4.12 5.283 6.111 6.88a40.87 40.87 0 0 1 1.219 1.008c.974.875 6.719 4.018 7.342 4.018.088 0 .421.111.74.247 1.473.63 4.414 1.31 5.959 1.378l1.146.05.043-.793c.116-2.134.23-2.587.8-3.17.947-.968 2.168-1.19 3.38-.615 1.034.49 1.51 1.408 1.51 2.911 0 1.933-.008 1.926 2.06 1.556.953-.17 2.05-.38 2.438-.466zm-9.192-21.642c-1.348-.33-2.685-1.117-3.796-2.235-3.61-3.632-2.792-9.702 1.671-12.407l1.159-.702.052-6.618c.057-7.312.015-7.038 1.228-7.935.841-.622 2.364-.593 3.223.062 1.17.892 1.157.805 1.157 7.95v6.448l1.198.768c1.341.86 2.54 2.118 3.091 3.243l.367.75h4.745c5.083 0 5.569.073 6.345.964.416.478.835 1.454.835 1.946 0 .616-.449 1.538-1.007 2.07-.738.702-1.817.84-6.578.84H79.38l-.717 1.103c-.93 1.43-2.01 2.462-3.194 3.052-1.822.91-3.754 1.151-5.595.7zm3.183-5.905c.674-.444.968-.997.976-1.834.008-.894-.459-1.658-1.266-2.072-.921-.473-1.411-.422-2.28.24-1.207.921-1.302 2.279-.24 3.406.499.528.679.604 1.431.603.554-.001 1.046-.123 1.379-.343zM28.96 216.072c.114-.184-.093-.708-.632-1.603-1.342-2.226-3.101-6.14-4.003-8.907-.81-2.486-1.088-3.455-1.088-3.793 0-.556-.607-1.083-1.547-1.346-.505-.14-1.297-.368-1.759-.505-.461-.136-1.27-.368-1.797-.514-1.657-.459-2.502-.995-2.95-1.872-.4-.783-.404-.848-.409-7.78-.004-6.041.034-7.082.28-7.67.482-1.156.908-1.44 3.155-2.103a136.68 136.68 0 0 0 1.764-.534c.388-.122 1.162-.355 1.721-.519 1.018-.298 1.542-.759 1.542-1.355 0-.169.119-.687.265-1.151.145-.464.392-1.28.548-1.814.78-2.666 2.473-6.51 4.345-9.864 1.078-1.931 1.039-1.761.586-2.557-2.942-5.171-3.226-5.936-2.677-7.208.136-.315 2.55-2.855 5.424-5.708 4.07-4.038 5.305-5.166 5.766-5.264.6-.128 1.743.01 2.059.25.177.134 2.87 1.586 4.66 2.513l.957.495.719-.42c1.82-1.062 4.413-2.404 5.746-2.974 1.857-.793 4.11-1.643 5.027-1.896.292-.08 1.085-.302 1.764-.493.68-.19 1.443-.395 1.698-.453.496-.115.634-.376 1.129-2.14 1.112-3.962 1.386-4.712 1.92-5.248.283-.284.705-.588.938-.677.233-.088 3.676-.16 7.65-.16 5.78 0 7.344.049 7.814.245 1.033.432 1.439 1.203 2.33 4.429.16.582.4 1.357.533 1.723.133.366.242.82.242 1.01 0 .46.737.922 1.355.851l.497-.057V91.791l-16.228-.088c-15.428-.084-16.251-.105-16.71-.415-.265-.18-.642-.586-.837-.903-.35-.567-.356-.837-.356-16.638 0-14.375-.03-16.091-.278-16.34-.251-.25-4.72-.273-47.228-.233l-46.95.045-.046 79.287c-.025 43.607-.007 79.386.039 79.507.066.175 7.53.22 36.503.22 21.865 0 36.46-.064 36.52-.161zm-58.816-10.743c-.676-.306-1.228-.808-1.484-1.348-.25-.524-.28-2.326-.28-16.352v-15.764l.43-.633c.237-.348.733-.783 1.102-.967.644-.32 1.311-.334 15.754-.334 8.295 0 15.448.063 15.897.14 1.193.205 2.038 1.097 2.182 2.305.06.499.084 7.733.054 16.076-.051 14.568-.067 15.192-.39 15.726-.185.306-.633.723-.994.926-.654.368-.738.37-16.332.357-8.621-.007-15.794-.066-15.94-.132zm27.957-17.582v-11.995H-25.887l-.045 11.818c-.025 6.5-.008 11.918.039 12.04.067.176 2.57.212 12.04.176l11.955-.045zm-15.71 6.283c-.473-.289-4.768-5.177-5.595-6.367-.48-.693-.408-2.237.145-3.05.74-1.09 2.178-1.473 3.479-.93.537.225 1.162.865 3.146 3.226.184.218.46.397.615.397.23 0 1.499-.954 2.47-1.855 1.706-1.585 4.981-4.095 5.57-4.271 1.007-.3 2.055-.016 2.807.76.493.508.592.755.656 1.631.093 1.293-.174 1.846-1.392 2.875-.5.424-1 .85-1.108.948-.11.097-1.388 1.168-2.843 2.381-1.455 1.213-2.949 2.48-3.32 2.818-1.486 1.351-2.24 1.768-3.194 1.767-.563 0-1.096-.123-1.436-.33zM-29.31 163.54c-.233-.044-.724-.278-1.09-.52-1.292-.855-1.22.177-1.22-17.255 0-17.485-.081-16.37 1.273-17.248l.739-.48H1.843l.583.398c.32.218.749.62.952.895.368.496.369.539.369 16.549v16.05l-.728.68c-.4.372-1.035.763-1.41.868-.672.186-29.949.246-30.919.063zm27.393-5.971c.162-.42.124-23.412-.039-23.667-.11-.176-2.636-.213-12.035-.177l-11.896.046-.045 11.818c-.025 6.5-.008 11.917.038 12.038.067.174 2.626.22 11.978.22 10.682 0 11.903-.028 12-.278zm-15.326-5.306c-.81-.427-1.194-.821-3.574-3.664-2.763-3.303-3.064-3.962-2.402-5.268.412-.814.773-1.178 1.451-1.461 1.509-.63 2.634-.144 4.26 1.84.63.769 1.289 1.49 1.462 1.6.272.174.751-.16 3.44-2.404 1.718-1.434 3.282-2.753 3.476-2.932.5-.46 1.15-.776 1.859-.904.806-.147 2.05.48 2.61 1.315.349.522.403.788.345 1.717-.078 1.27-.218 1.457-2.52 3.37a81.388 81.388 0 0 0-2.057 1.76c-.355.324-.874.76-1.153.972-.28.21-1.439 1.161-2.576 2.113-2.692 2.252-3.442 2.568-4.621 1.946zM-30.17 121.22c-.318-.158-.755-.534-.97-.836l-.391-.548v-16.052c0-15.773.006-16.06.353-16.533.194-.266.678-.644 1.076-.841.712-.353.95-.358 16.431-.311l15.71.047.677.546c.395.318.772.826.902 1.216.176.525.214 4.024.177 16.298-.047 15.166-.058 15.643-.391 16.08a5.006 5.006 0 0 1-.794.795c-.438.332-.912.344-16.326.384-14.356.037-15.93.014-16.454-.245zm28.272-17.436V91.791H-25.887l-.045 11.818c-.025 6.5-.008 11.918.039 12.04.067.175 2.57.212 12.04.176l11.955-.045zm-14.916 6.613c-.345-.06-.788-.222-.984-.362-.678-.483-4.976-5.613-5.417-6.465-.385-.746-.367-1.502.059-2.335.612-1.2 1.682-1.728 3.079-1.518.818.122 1.419.635 3.115 2.656.407.485.867.93 1.023.99.194.073 1.17-.639 3.105-2.264 4.438-3.73 4.732-3.93 5.776-3.93 1.065 0 1.89.454 2.438 1.343.308.498.368.815.309 1.63-.079 1.087-.362 1.598-1.29 2.325-.306.24-.986.806-1.513 1.26-1.732 1.49-4.651 3.939-5.19 4.353-.292.224-.809.665-1.15.98-1.28 1.18-2.185 1.54-3.36 1.337zm33.614 10.99c-.606-.146-1.454-1.11-1.677-1.906-.35-1.25.277-2.655 1.47-3.298.518-.279 2.071-.302 21.05-.309 19.186-.007 20.528.013 21.07.302.71.38 1.103.818 1.49 1.664.526 1.154-.081 2.68-1.332 3.345-.589.313-1.48.326-21.167.306-11.303-.011-20.71-.058-20.904-.105zm.259-13.905c-2.478-.763-2.772-4.066-.462-5.184.73-.354 1.021-.366 8.995-.366 8.954 0 8.928-.003 9.84.993.747.815.97 1.661.675 2.558-.348 1.054-.924 1.665-1.879 1.99-.705.24-1.932.278-8.596.268-6.128-.01-7.943-.065-8.573-.259zM80.1 85.918c.048-.078.033-.228-.034-.334-.246-.394-23.725-24.044-23.87-24.044-.176 0-.208 24.226-.033 24.4.168.17 23.833.147 23.937-.022z" style="fill:#00b3b3;fill-opacity:1;stroke-width:.176389;filter:url(#e)" transform="translate(20.928 85.92) scale(.0604)"/><path d="M63.77 246.24c-.929-.597-1.125-.987-1.999-3.99-.14-.484-.376-1.261-.521-1.725-.146-.464-.265-.95-.265-1.079 0-.488-.724-1.151-1.375-1.26-1.144-.191-4.957-1.44-7.092-2.321-1.309-.542-5.08-2.438-6.167-3.102l-1.14-.697-1.241.645a98.21 98.21 0 0 0-2.211 1.188c-2.84 1.59-3.513 1.782-4.61 1.316-.413-.175-2.428-2.068-5.645-5.303-5.328-5.358-5.563-5.668-5.376-7.087.092-.702.075-.733-.449-.838-.3-.06-16.967-.11-37.038-.11-28.866 0-36.575-.045-36.887-.22-.908-.507-1.353-1.074-1.544-1.967-.138-.644-.177-24.355-.139-83.537.051-78.818.068-82.665.367-83.213.173-.315.628-.772 1.011-1.014l.697-.44H2.958c45.936 0 50.867.027 51.377.279.31.153 3.69 3.427 7.512 7.276C83.135 80.484 89.29 86.72 89.71 87.27l.466.612.089 27.619.088 27.618.793.384c.437.211 1.588.762 2.558 1.224.97.462 2.346 1.182 3.057 1.6 1.24.729 2.06.935 2.42.608.092-.083.684-.43 1.314-.77s1.782-.964 2.558-1.386c1.696-.922 2.972-1.05 3.883-.392.69.498 9.784 9.666 10.183 10.265.195.293.308.803.308 1.395.001.979-.075 1.15-2.318 5.197-.933 1.684-.97 1.826-.616 2.341.58.842 2.39 4.34 3.099 5.992.208.486.455 1.02.548 1.189.094.168.17.394.17.502 0 .108.113.447.25.752.138.306.5 1.35.807 2.32l.81 2.558c.138.436.251.923.25 1.08-.001.533.024.544 4.498 1.86.485.142 1.15.327 1.476.41.83.21 1.836 1.068 2.086 1.782.29.827.315 14.21.029 15.167-.35 1.167-1.041 1.6-3.767 2.366-.582.163-1.376.399-1.764.523-.388.125-1.034.317-1.435.426-.898.246-.983.357-1.376 1.786-.443 1.609-1.322 4.43-1.51 4.85-.088.194-.448 1.064-.8 1.933-.56 1.384-2.439 5.147-3.357 6.728-.351.604-.4.444.842 2.716 2.073 3.795 2.08 3.81 2.08 4.788 0 .589-.111 1.122-.289 1.39-.159.24-2.44 2.607-5.071 5.26-4.853 4.894-5.602 5.5-6.782 5.493-.466-.003-1.613-.533-3.998-1.846-2.89-1.591-2.857-1.579-3.33-1.268-.236.154-.893.533-1.46.842-4.16 2.268-7.005 3.457-11.085 4.635-2.784.804-2.528.6-3.005 2.402-.166.63-.405 1.464-.53 1.852a73.923 73.923 0 0 0-.53 1.764c-.166.582-.495 1.317-.73 1.632-.835 1.121-.69 1.104-8.91 1.09-6.771-.012-7.506-.042-7.94-.32zm12.435-5.624c.155-.17.362-.627.461-1.014.099-.386.298-1.1.443-1.585.145-.485.377-1.278.516-1.764.334-1.163.567-1.687.949-2.125.36-.414 1.378-.96 1.797-.964.155-.002 1.075-.204 2.045-.45 2.56-.65 2.845-.737 4.763-1.446 2.638-.974 5.442-2.363 8.126-4.023 2.853-1.765 3.035-1.758 6.69.269l1.815 1.003c.415.229.851.416.968.416.117 0 1.543-1.328 3.169-2.952 3.084-3.08 3.277-3.379 2.718-4.196-.26-.38-1.711-3.045-2.35-4.317-.22-.437-.402-.963-.405-1.169-.008-.526.447-1.554 1.197-2.703.351-.538.737-1.137.857-1.331.35-.564 2.88-5.673 2.88-5.816 0-.07.113-.378.252-.684.497-1.092 1.611-4.863 2.129-7.203.4-1.812.96-2.388 2.86-2.945 2.204-.647 2.568-.758 3.32-1.014.39-.133.849-.242 1.018-.242.54 0 .65-.82.65-4.85 0-4.296-.017-4.376-1.026-4.606-1.05-.24-4.22-1.184-4.862-1.449-1.164-.48-1.614-1.084-1.955-2.624-.524-2.363-1.636-6.127-2.134-7.223-.139-.306-.253-.61-.253-.676 0-.153-2.16-4.545-2.69-5.471a48.46 48.46 0 0 0-1.07-1.735c-1.06-1.642-1.268-2.296-1.01-3.173.12-.405.358-.975.53-1.266.171-.29.69-1.243 1.15-2.116.463-.874.91-1.663.995-1.756.085-.092.155-.369.155-.615 0-.344-.685-1.134-2.953-3.404-1.623-1.626-3.074-2.957-3.223-2.957-.15 0-.428.106-.62.236-.191.13-1.141.66-2.112 1.179-3.935 2.104-3.692 2.103-7.009.048-4.226-2.619-8.334-4.26-14.235-5.685-1.835-.443-2.478-.984-2.916-2.452-.164-.55-.36-1.197-.435-1.44-.076-.242-.276-.917-.446-1.499a51.83 51.83 0 0 0-.517-1.676l-.209-.617-4.138-.05c-4.378-.052-4.931-.008-4.931.4 0 .14-.11.595-.246 1.011a65.557 65.557 0 0 0-.547 1.814c-1.061 3.716-1.31 4.016-3.793 4.568-.728.162-1.562.364-1.853.449-.29.084-1.124.324-1.852.532-.727.208-1.46.454-1.629.546-.168.092-.394.167-.502.167-.108 0-.447.11-.752.243-.306.134-.993.42-1.526.634-1.356.545-5.133 2.535-6.517 3.434-1.654 1.075-1.844 1.157-2.664 1.157-.735 0-1.022-.132-5.034-2.318-.687-.374-1.36-.68-1.494-.68-.277 0-6.164 5.906-6.164 6.185 0 .1.144.475.32.834.302.618.594 1.157 1.985 3.652.466.836.591 1.262.595 2.03.005.899-.088 1.122-1.243 2.998-1.633 2.652-2.727 4.803-3.676 7.23-.17.437-.369.914-.44 1.06-.073.145-.309.86-.525 1.587-.216.727-.46 1.521-.54 1.764-.082.242-.281 1.036-.444 1.764-.532 2.374-.63 2.655-1.112 3.156-.588.611-1.509.976-4.71 1.863-.581.161-1.315.406-1.63.544l-.574.252v4.302c0 3.236.055 4.345.22 4.47.122.091 1.488.544 3.037 1.007 1.55.462 3.038.998 3.31 1.19.525.375 1.194 1.647 1.194 2.273 0 .208.123.828.272 1.376.698 2.557 1.22 4.286 1.475 4.878.083.194.29.71.459 1.147.898 2.314 1.774 4.048 3.432 6.79 1.393 2.306 1.492 2.535 1.491 3.44 0 .753-.122 1.188-.542 1.94-1.974 3.542-2.354 4.28-2.354 4.582 0 .274 5.89 6.178 6.164 6.178.126 0 .835-.33 1.575-.736.74-.405 1.782-.97 2.316-1.255.533-.286 1.08-.61 1.217-.719.136-.11.77-.2 1.41-.2 1.076 0 1.245.055 2.223.727 3.237 2.224 7.92 4.354 12.347 5.618.583.166 1.297.371 1.588.455.291.085.886.207 1.323.273 1.053.16 2.01.656 2.421 1.257.184.27.48.966.657 1.548.178.582.385 1.257.461 1.5.077.242.312 1.035.524 1.763.212.728.511 1.422.665 1.543.204.162 1.361.22 4.362.22 3.679 0 4.112-.03 4.366-.31zm-8.782-15.11c-.097-.034-.772-.156-1.5-.27-1.671-.261-4.643-1.005-5.813-1.454a67.288 67.288 0 0 0-1.499-.535c-.9-.311-4.589-2.106-5.539-2.695-2.508-1.554-4.571-3.201-6.831-5.455-3.6-3.59-5.87-7.004-8.039-12.093-.263-.618-1.265-3.779-1.565-4.939-1.216-4.7-1.215-12.14.003-16.757.662-2.508.77-2.85 1.528-4.806 3.246-8.377 9.833-15.426 18.08-19.35 1.698-.808 2.259-1.036 4.12-1.674 3.141-1.077 7.94-1.863 11.37-1.862 2.65.001 6.648.567 9.708 1.374.875.231 3.807 1.229 4.183 1.423.173.09 1.109.543 2.079 1.008 5.702 2.73 11.092 7.579 14.495 13.04 1.5 2.408 1.866 3.147 3.402 6.879 1.297 3.15 2.125 7.96 2.125 12.347 0 5.563-1.094 10.421-3.463 15.38-2.533 5.3-5.623 9.18-10.232 12.854-2.048 1.632-4.655 3.313-6.15 3.965-.583.254-1.416.623-1.853.82-2.086.942-5.083 1.848-8.378 2.535-.959.2-9.776.429-10.23.266zm11.642-6.411c1.765-.391 5.583-1.862 6.831-2.632.362-.223.708-.406.768-.406.17 0 3.427-2.208 4.218-2.86 5.492-4.523 9.302-10.882 10.649-17.778.517-2.647.48-2.822-.589-2.822-1.255 0-2.606-.332-3.056-.751-.552-.516-1.094-1.585-1.094-2.16 0-.692.628-1.774 1.348-2.323.557-.425.851-.505 2.162-.584l1.517-.09-.042-.883c-.066-1.366-.522-3.4-1.288-5.74-.962-2.94-2.627-6.065-4.741-8.9-1.01-1.354-4.497-4.846-5.422-5.43-.39-.246-.822-.56-.959-.697-.236-.236-3.798-2.428-3.946-2.428-.038 0-.611-.243-1.273-.54-1.58-.71-1.767-.786-2.702-1.1-2.249-.756-5.31-1.416-6.174-1.331l-.617.06-.051 1.559c-.042 1.28-.126 1.676-.47 2.222-.563.891-1.473 1.308-2.646 1.21-1.733-.143-2.403-1.034-2.553-3.395l-.1-1.595-.69-.057c-.954-.078-4.138.656-6.543 1.508-7.29 2.583-13.181 7.813-16.944 15.041-.848 1.628-1.789 4.213-2.306 6.334-.343 1.404-.735 4.049-.619 4.165.047.047.686.086 1.422.088 1.71.005 2.643.402 3.267 1.39.843 1.336.456 3.078-.865 3.894-.407.252-1.057.4-2.147.491l-1.563.13.04 1.225c.104 3.083 2.152 8.716 4.43 12.181 1.626 2.475 4.12 5.283 6.111 6.88a40.87 40.87 0 0 1 1.219 1.008c.974.875 6.719 4.018 7.342 4.018.088 0 .421.111.74.247 1.473.63 4.414 1.31 5.959 1.378l1.146.05.043-.793c.116-2.134.23-2.587.8-3.17.947-.968 2.168-1.19 3.38-.615 1.034.49 1.51 1.408 1.51 2.911 0 1.933-.008 1.926 2.06 1.556.953-.17 2.05-.38 2.438-.466zm-9.192-21.642c-1.348-.33-2.685-1.117-3.796-2.235-3.61-3.632-2.792-9.702 1.671-12.407l1.159-.702.052-6.618c.057-7.312.015-7.038 1.228-7.935.841-.622 2.364-.593 3.223.062 1.17.892 1.157.805 1.157 7.95v6.448l1.198.768c1.341.86 2.54 2.118 3.091 3.243l.367.75h4.745c5.083 0 5.569.073 6.345.964.416.478.835 1.454.835 1.946 0 .616-.449 1.538-1.007 2.07-.738.702-1.817.84-6.578.84H79.38l-.717 1.103c-.93 1.43-2.01 2.462-3.194 3.052-1.822.91-3.754 1.151-5.595.7zm3.183-5.905c.674-.444.968-.997.976-1.834.008-.894-.459-1.658-1.266-2.072-.921-.473-1.411-.422-2.28.24-1.207.921-1.302 2.279-.24 3.406.499.528.679.604 1.431.603.554-.001 1.046-.123 1.379-.343zM28.96 216.072c.114-.184-.093-.708-.632-1.603-1.342-2.226-3.101-6.14-4.003-8.907-.81-2.486-1.088-3.455-1.088-3.793 0-.556-.607-1.083-1.547-1.346-.505-.14-1.297-.368-1.759-.505-.461-.136-1.27-.368-1.797-.514-1.657-.459-2.502-.995-2.95-1.872-.4-.783-.404-.848-.409-7.78-.004-6.041.034-7.082.28-7.67.482-1.156.908-1.44 3.155-2.103a136.68 136.68 0 0 0 1.764-.534c.388-.122 1.162-.355 1.721-.519 1.018-.298 1.542-.759 1.542-1.355 0-.169.119-.687.265-1.151.145-.464.392-1.28.548-1.814.78-2.666 2.473-6.51 4.345-9.864 1.078-1.931 1.039-1.761.586-2.557-2.942-5.171-3.226-5.936-2.677-7.208.136-.315 2.55-2.855 5.424-5.708 4.07-4.038 5.305-5.166 5.766-5.264.6-.128 1.743.01 2.059.25.177.134 2.87 1.586 4.66 2.513l.957.495.719-.42c1.82-1.062 4.413-2.404 5.746-2.974 1.857-.793 4.11-1.643 5.027-1.896.292-.08 1.085-.302 1.764-.493.68-.19 1.443-.395 1.698-.453.496-.115.634-.376 1.129-2.14 1.112-3.962 1.386-4.712 1.92-5.248.283-.284.705-.588.938-.677.233-.088 3.676-.16 7.65-.16 5.78 0 7.344.049 7.814.245 1.033.432 1.439 1.203 2.33 4.429.16.582.4 1.357.533 1.723.133.366.242.82.242 1.01 0 .46.737.922 1.355.851l.497-.057V91.791l-16.228-.088c-15.428-.084-16.251-.105-16.71-.415-.265-.18-.642-.586-.837-.903-.35-.567-.356-.837-.356-16.638 0-14.375-.03-16.091-.278-16.34-.251-.25-4.72-.273-47.228-.233l-46.95.045-.046 79.287c-.025 43.607-.007 79.386.039 79.507.066.175 7.53.22 36.503.22 21.865 0 36.46-.064 36.52-.161zm-58.816-10.743c-.676-.306-1.228-.808-1.484-1.348-.25-.524-.28-2.326-.28-16.352v-15.764l.43-.633c.237-.348.733-.783 1.102-.967.644-.32 1.311-.334 15.754-.334 8.295 0 15.448.063 15.897.14 1.193.205 2.038 1.097 2.182 2.305.06.499.084 7.733.054 16.076-.051 14.568-.067 15.192-.39 15.726-.185.306-.633.723-.994.926-.654.368-.738.37-16.332.357-8.621-.007-15.794-.066-15.94-.132zm27.957-17.582v-11.995H-25.887l-.045 11.818c-.025 6.5-.008 11.918.039 12.04.067.176 2.57.212 12.04.176l11.955-.045zm-15.71 6.283c-.473-.289-4.768-5.177-5.595-6.367-.48-.693-.408-2.237.145-3.05.74-1.09 2.178-1.473 3.479-.93.537.225 1.162.865 3.146 3.226.184.218.46.397.615.397.23 0 1.499-.954 2.47-1.855 1.706-1.585 4.981-4.095 5.57-4.271 1.007-.3 2.055-.016 2.807.76.493.508.592.755.656 1.631.093 1.293-.174 1.846-1.392 2.875-.5.424-1 .85-1.108.948-.11.097-1.388 1.168-2.843 2.381-1.455 1.213-2.949 2.48-3.32 2.818-1.486 1.351-2.24 1.768-3.194 1.767-.563 0-1.096-.123-1.436-.33zM-29.31 163.54c-.233-.044-.724-.278-1.09-.52-1.292-.855-1.22.177-1.22-17.255 0-17.485-.081-16.37 1.273-17.248l.739-.48H1.843l.583.398c.32.218.749.62.952.895.368.496.369.539.369 16.549v16.05l-.728.68c-.4.372-1.035.763-1.41.868-.672.186-29.949.246-30.919.063zm27.393-5.971c.162-.42.124-23.412-.039-23.667-.11-.176-2.636-.213-12.035-.177l-11.896.046-.045 11.818c-.025 6.5-.008 11.917.038 12.038.067.174 2.626.22 11.978.22 10.682 0 11.903-.028 12-.278zm-15.326-5.306c-.81-.427-1.194-.821-3.574-3.664-2.763-3.303-3.064-3.962-2.402-5.268.412-.814.773-1.178 1.451-1.461 1.509-.63 2.634-.144 4.26 1.84.63.769 1.289 1.49 1.462 1.6.272.174.751-.16 3.44-2.404 1.718-1.434 3.282-2.753 3.476-2.932.5-.46 1.15-.776 1.859-.904.806-.147 2.05.48 2.61 1.315.349.522.403.788.345 1.717-.078 1.27-.218 1.457-2.52 3.37a81.388 81.388 0 0 0-2.057 1.76c-.355.324-.874.76-1.153.972-.28.21-1.439 1.161-2.576 2.113-2.692 2.252-3.442 2.568-4.621 1.946zM-30.17 121.22c-.318-.158-.755-.534-.97-.836l-.391-.548v-16.052c0-15.773.006-16.06.353-16.533.194-.266.678-.644 1.076-.841.712-.353.95-.358 16.431-.311l15.71.047.677.546c.395.318.772.826.902 1.216.176.525.214 4.024.177 16.298-.047 15.166-.058 15.643-.391 16.08a5.006 5.006 0 0 1-.794.795c-.438.332-.912.344-16.326.384-14.356.037-15.93.014-16.454-.245zm28.272-17.436V91.791H-25.887l-.045 11.818c-.025 6.5-.008 11.918.039 12.04.067.175 2.57.212 12.04.176l11.955-.045zm-14.916 6.613c-.345-.06-.788-.222-.984-.362-.678-.483-4.976-5.613-5.417-6.465-.385-.746-.367-1.502.059-2.335.612-1.2 1.682-1.728 3.079-1.518.818.122 1.419.635 3.115 2.656.407.485.867.93 1.023.99.194.073 1.17-.639 3.105-2.264 4.438-3.73 4.732-3.93 5.776-3.93 1.065 0 1.89.454 2.438 1.343.308.498.368.815.309 1.63-.079 1.087-.362 1.598-1.29 2.325-.306.24-.986.806-1.513 1.26-1.732 1.49-4.651 3.939-5.19 4.353-.292.224-.809.665-1.15.98-1.28 1.18-2.185 1.54-3.36 1.337zm33.614 10.99c-.606-.146-1.454-1.11-1.677-1.906-.35-1.25.277-2.655 1.47-3.298.518-.279 2.071-.302 21.05-.309 19.186-.007 20.528.013 21.07.302.71.38 1.103.818 1.49 1.664.526 1.154-.081 2.68-1.332 3.345-.589.313-1.48.326-21.167.306-11.303-.011-20.71-.058-20.904-.105zm.259-13.905c-2.478-.763-2.772-4.066-.462-5.184.73-.354 1.021-.366 8.995-.366 8.954 0 8.928-.003 9.84.993.747.815.97 1.661.675 2.558-.348 1.054-.924 1.665-1.879 1.99-.705.24-1.932.278-8.596.268-6.128-.01-7.943-.065-8.573-.259zM80.1 85.918c.048-.078.033-.228-.034-.334-.246-.394-23.725-24.044-23.87-24.044-.176 0-.208 24.226-.033 24.4.168.17 23.833.147 23.937-.022z" style="fill:#00b3b3;fill-opacity:1;stroke-width:.176389;filter:url(#f)" transform="translate(20.928 85.92) scale(.0604)"/><path d="M63.77 246.24c-.929-.597-1.125-.987-1.999-3.99-.14-.484-.376-1.261-.521-1.725-.146-.464-.265-.95-.265-1.079 0-.488-.724-1.151-1.375-1.26-1.144-.191-4.957-1.44-7.092-2.321-1.309-.542-5.08-2.438-6.167-3.102l-1.14-.697-1.241.645a98.21 98.21 0 0 0-2.211 1.188c-2.84 1.59-3.513 1.782-4.61 1.316-.413-.175-2.428-2.068-5.645-5.303-5.328-5.358-5.563-5.668-5.376-7.087.092-.702.075-.733-.449-.838-.3-.06-16.967-.11-37.038-.11-28.866 0-36.575-.045-36.887-.22-.908-.507-1.353-1.074-1.544-1.967-.138-.644-.177-24.355-.139-83.537.051-78.818.068-82.665.367-83.213.173-.315.628-.772 1.011-1.014l.697-.44H2.958c45.936 0 50.867.027 51.377.279.31.153 3.69 3.427 7.512 7.276C83.135 80.484 89.29 86.72 89.71 87.27l.466.612.089 27.619.088 27.618.793.384c.437.211 1.588.762 2.558 1.224.97.462 2.346 1.182 3.057 1.6 1.24.729 2.06.935 2.42.608.092-.083.684-.43 1.314-.77s1.782-.964 2.558-1.386c1.696-.922 2.972-1.05 3.883-.392.69.498 9.784 9.666 10.183 10.265.195.293.308.803.308 1.395.001.979-.075 1.15-2.318 5.197-.933 1.684-.97 1.826-.616 2.341.58.842 2.39 4.34 3.099 5.992.208.486.455 1.02.548 1.189.094.168.17.394.17.502 0 .108.113.447.25.752.138.306.5 1.35.807 2.32l.81 2.558c.138.436.251.923.25 1.08-.001.533.024.544 4.498 1.86.485.142 1.15.327 1.476.41.83.21 1.836 1.068 2.086 1.782.29.827.315 14.21.029 15.167-.35 1.167-1.041 1.6-3.767 2.366-.582.163-1.376.399-1.764.523-.388.125-1.034.317-1.435.426-.898.246-.983.357-1.376 1.786-.443 1.609-1.322 4.43-1.51 4.85-.088.194-.448 1.064-.8 1.933-.56 1.384-2.439 5.147-3.357 6.728-.351.604-.4.444.842 2.716 2.073 3.795 2.08 3.81 2.08 4.788 0 .589-.111 1.122-.289 1.39-.159.24-2.44 2.607-5.071 5.26-4.853 4.894-5.602 5.5-6.782 5.493-.466-.003-1.613-.533-3.998-1.846-2.89-1.591-2.857-1.579-3.33-1.268-.236.154-.893.533-1.46.842-4.16 2.268-7.005 3.457-11.085 4.635-2.784.804-2.528.6-3.005 2.402-.166.63-.405 1.464-.53 1.852a73.923 73.923 0 0 0-.53 1.764c-.166.582-.495 1.317-.73 1.632-.835 1.121-.69 1.104-8.91 1.09-6.771-.012-7.506-.042-7.94-.32zm12.435-5.624c.155-.17.362-.627.461-1.014.099-.386.298-1.1.443-1.585.145-.485.377-1.278.516-1.764.334-1.163.567-1.687.949-2.125.36-.414 1.378-.96 1.797-.964.155-.002 1.075-.204 2.045-.45 2.56-.65 2.845-.737 4.763-1.446 2.638-.974 5.442-2.363 8.126-4.023 2.853-1.765 3.035-1.758 6.69.269l1.815 1.003c.415.229.851.416.968.416.117 0 1.543-1.328 3.169-2.952 3.084-3.08 3.277-3.379 2.718-4.196-.26-.38-1.711-3.045-2.35-4.317-.22-.437-.402-.963-.405-1.169-.008-.526.447-1.554 1.197-2.703.351-.538.737-1.137.857-1.331.35-.564 2.88-5.673 2.88-5.816 0-.07.113-.378.252-.684.497-1.092 1.611-4.863 2.129-7.203.4-1.812.96-2.388 2.86-2.945 2.204-.647 2.568-.758 3.32-1.014.39-.133.849-.242 1.018-.242.54 0 .65-.82.65-4.85 0-4.296-.017-4.376-1.026-4.606-1.05-.24-4.22-1.184-4.862-1.449-1.164-.48-1.614-1.084-1.955-2.624-.524-2.363-1.636-6.127-2.134-7.223-.139-.306-.253-.61-.253-.676 0-.153-2.16-4.545-2.69-5.471a48.46 48.46 0 0 0-1.07-1.735c-1.06-1.642-1.268-2.296-1.01-3.173.12-.405.358-.975.53-1.266.171-.29.69-1.243 1.15-2.116.463-.874.91-1.663.995-1.756.085-.092.155-.369.155-.615 0-.344-.685-1.134-2.953-3.404-1.623-1.626-3.074-2.957-3.223-2.957-.15 0-.428.106-.62.236-.191.13-1.141.66-2.112 1.179-3.935 2.104-3.692 2.103-7.009.048-4.226-2.619-8.334-4.26-14.235-5.685-1.835-.443-2.478-.984-2.916-2.452-.164-.55-.36-1.197-.435-1.44-.076-.242-.276-.917-.446-1.499a51.83 51.83 0 0 0-.517-1.676l-.209-.617-4.138-.05c-4.378-.052-4.931-.008-4.931.4 0 .14-.11.595-.246 1.011a65.557 65.557 0 0 0-.547 1.814c-1.061 3.716-1.31 4.016-3.793 4.568-.728.162-1.562.364-1.853.449-.29.084-1.124.324-1.852.532-.727.208-1.46.454-1.629.546-.168.092-.394.167-.502.167-.108 0-.447.11-.752.243-.306.134-.993.42-1.526.634-1.356.545-5.133 2.535-6.517 3.434-1.654 1.075-1.844 1.157-2.664 1.157-.735 0-1.022-.132-5.034-2.318-.687-.374-1.36-.68-1.494-.68-.277 0-6.164 5.906-6.164 6.185 0 .1.144.475.32.834.302.618.594 1.157 1.985 3.652.466.836.591 1.262.595 2.03.005.899-.088 1.122-1.243 2.998-1.633 2.652-2.727 4.803-3.676 7.23-.17.437-.369.914-.44 1.06-.073.145-.309.86-.525 1.587-.216.727-.46 1.521-.54 1.764-.082.242-.281 1.036-.444 1.764-.532 2.374-.63 2.655-1.112 3.156-.588.611-1.509.976-4.71 1.863-.581.161-1.315.406-1.63.544l-.574.252v4.302c0 3.236.055 4.345.22 4.47.122.091 1.488.544 3.037 1.007 1.55.462 3.038.998 3.31 1.19.525.375 1.194 1.647 1.194 2.273 0 .208.123.828.272 1.376.698 2.557 1.22 4.286 1.475 4.878.083.194.29.71.459 1.147.898 2.314 1.774 4.048 3.432 6.79 1.393 2.306 1.492 2.535 1.491 3.44 0 .753-.122 1.188-.542 1.94-1.974 3.542-2.354 4.28-2.354 4.582 0 .274 5.89 6.178 6.164 6.178.126 0 .835-.33 1.575-.736.74-.405 1.782-.97 2.316-1.255.533-.286 1.08-.61 1.217-.719.136-.11.77-.2 1.41-.2 1.076 0 1.245.055 2.223.727 3.237 2.224 7.92 4.354 12.347 5.618.583.166 1.297.371 1.588.455.291.085.886.207 1.323.273 1.053.16 2.01.656 2.421 1.257.184.27.48.966.657 1.548.178.582.385 1.257.461 1.5.077.242.312 1.035.524 1.763.212.728.511 1.422.665 1.543.204.162 1.361.22 4.362.22 3.679 0 4.112-.03 4.366-.31zm-8.782-15.11c-.097-.034-.772-.156-1.5-.27-1.671-.261-4.643-1.005-5.813-1.454a67.288 67.288 0 0 0-1.499-.535c-.9-.311-4.589-2.106-5.539-2.695-2.508-1.554-4.571-3.201-6.831-5.455-3.6-3.59-5.87-7.004-8.039-12.093-.263-.618-1.265-3.779-1.565-4.939-1.216-4.7-1.215-12.14.003-16.757.662-2.508.77-2.85 1.528-4.806 3.246-8.377 9.833-15.426 18.08-19.35 1.698-.808 2.259-1.036 4.12-1.674 3.141-1.077 7.94-1.863 11.37-1.862 2.65.001 6.648.567 9.708 1.374.875.231 3.807 1.229 4.183 1.423.173.09 1.109.543 2.079 1.008 5.702 2.73 11.092 7.579 14.495 13.04 1.5 2.408 1.866 3.147 3.402 6.879 1.297 3.15 2.125 7.96 2.125 12.347 0 5.563-1.094 10.421-3.463 15.38-2.533 5.3-5.623 9.18-10.232 12.854-2.048 1.632-4.655 3.313-6.15 3.965-.583.254-1.416.623-1.853.82-2.086.942-5.083 1.848-8.378 2.535-.959.2-9.776.429-10.23.266zm11.642-6.411c1.765-.391 5.583-1.862 6.831-2.632.362-.223.708-.406.768-.406.17 0 3.427-2.208 4.218-2.86 5.492-4.523 9.302-10.882 10.649-17.778.517-2.647.48-2.822-.589-2.822-1.255 0-2.606-.332-3.056-.751-.552-.516-1.094-1.585-1.094-2.16 0-.692.628-1.774 1.348-2.323.557-.425.851-.505 2.162-.584l1.517-.09-.042-.883c-.066-1.366-.522-3.4-1.288-5.74-.962-2.94-2.627-6.065-4.741-8.9-1.01-1.354-4.497-4.846-5.422-5.43-.39-.246-.822-.56-.959-.697-.236-.236-3.798-2.428-3.946-2.428-.038 0-.611-.243-1.273-.54-1.58-.71-1.767-.786-2.702-1.1-2.249-.756-5.31-1.416-6.174-1.331l-.617.06-.051 1.559c-.042 1.28-.126 1.676-.47 2.222-.563.891-1.473 1.308-2.646 1.21-1.733-.143-2.403-1.034-2.553-3.395l-.1-1.595-.69-.057c-.954-.078-4.138.656-6.543 1.508-7.29 2.583-13.181 7.813-16.944 15.041-.848 1.628-1.789 4.213-2.306 6.334-.343 1.404-.735 4.049-.619 4.165.047.047.686.086 1.422.088 1.71.005 2.643.402 3.267 1.39.843 1.336.456 3.078-.865 3.894-.407.252-1.057.4-2.147.491l-1.563.13.04 1.225c.104 3.083 2.152 8.716 4.43 12.181 1.626 2.475 4.12 5.283 6.111 6.88a40.87 40.87 0 0 1 1.219 1.008c.974.875 6.719 4.018 7.342 4.018.088 0 .421.111.74.247 1.473.63 4.414 1.31 5.959 1.378l1.146.05.043-.793c.116-2.134.23-2.587.8-3.17.947-.968 2.168-1.19 3.38-.615 1.034.49 1.51 1.408 1.51 2.911 0 1.933-.008 1.926 2.06 1.556.953-.17 2.05-.38 2.438-.466zm-9.192-21.642c-1.348-.33-2.685-1.117-3.796-2.235-3.61-3.632-2.792-9.702 1.671-12.407l1.159-.702.052-6.618c.057-7.312.015-7.038 1.228-7.935.841-.622 2.364-.593 3.223.062 1.17.892 1.157.805 1.157 7.95v6.448l1.198.768c1.341.86 2.54 2.118 3.091 3.243l.367.75h4.745c5.083 0 5.569.073 6.345.964.416.478.835 1.454.835 1.946 0 .616-.449 1.538-1.007 2.07-.738.702-1.817.84-6.578.84H79.38l-.717 1.103c-.93 1.43-2.01 2.462-3.194 3.052-1.822.91-3.754 1.151-5.595.7zm3.183-5.905c.674-.444.968-.997.976-1.834.008-.894-.459-1.658-1.266-2.072-.921-.473-1.411-.422-2.28.24-1.207.921-1.302 2.279-.24 3.406.499.528.679.604 1.431.603.554-.001 1.046-.123 1.379-.343zM28.96 216.072c.114-.184-.093-.708-.632-1.603-1.342-2.226-3.101-6.14-4.003-8.907-.81-2.486-1.088-3.455-1.088-3.793 0-.556-.607-1.083-1.547-1.346-.505-.14-1.297-.368-1.759-.505-.461-.136-1.27-.368-1.797-.514-1.657-.459-2.502-.995-2.95-1.872-.4-.783-.404-.848-.409-7.78-.004-6.041.034-7.082.28-7.67.482-1.156.908-1.44 3.155-2.103a136.68 136.68 0 0 0 1.764-.534c.388-.122 1.162-.355 1.721-.519 1.018-.298 1.542-.759 1.542-1.355 0-.169.119-.687.265-1.151.145-.464.392-1.28.548-1.814.78-2.666 2.473-6.51 4.345-9.864 1.078-1.931 1.039-1.761.586-2.557-2.942-5.171-3.226-5.936-2.677-7.208.136-.315 2.55-2.855 5.424-5.708 4.07-4.038 5.305-5.166 5.766-5.264.6-.128 1.743.01 2.059.25.177.134 2.87 1.586 4.66 2.513l.957.495.719-.42c1.82-1.062 4.413-2.404 5.746-2.974 1.857-.793 4.11-1.643 5.027-1.896.292-.08 1.085-.302 1.764-.493.68-.19 1.443-.395 1.698-.453.496-.115.634-.376 1.129-2.14 1.112-3.962 1.386-4.712 1.92-5.248.283-.284.705-.588.938-.677.233-.088 3.676-.16 7.65-.16 5.78 0 7.344.049 7.814.245 1.033.432 1.439 1.203 2.33 4.429.16.582.4 1.357.533 1.723.133.366.242.82.242 1.01 0 .46.737.922 1.355.851l.497-.057V91.791l-16.228-.088c-15.428-.084-16.251-.105-16.71-.415-.265-.18-.642-.586-.837-.903-.35-.567-.356-.837-.356-16.638 0-14.375-.03-16.091-.278-16.34-.251-.25-4.72-.273-47.228-.233l-46.95.045-.046 79.287c-.025 43.607-.007 79.386.039 79.507.066.175 7.53.22 36.503.22 21.865 0 36.46-.064 36.52-.161zm-58.816-10.743c-.676-.306-1.228-.808-1.484-1.348-.25-.524-.28-2.326-.28-16.352v-15.764l.43-.633c.237-.348.733-.783 1.102-.967.644-.32 1.311-.334 15.754-.334 8.295 0 15.448.063 15.897.14 1.193.205 2.038 1.097 2.182 2.305.06.499.084 7.733.054 16.076-.051 14.568-.067 15.192-.39 15.726-.185.306-.633.723-.994.926-.654.368-.738.37-16.332.357-8.621-.007-15.794-.066-15.94-.132zm27.957-17.582v-11.995H-25.887l-.045 11.818c-.025 6.5-.008 11.918.039 12.04.067.176 2.57.212 12.04.176l11.955-.045zm-15.71 6.283c-.473-.289-4.768-5.177-5.595-6.367-.48-.693-.408-2.237.145-3.05.74-1.09 2.178-1.473 3.479-.93.537.225 1.162.865 3.146 3.226.184.218.46.397.615.397.23 0 1.499-.954 2.47-1.855 1.706-1.585 4.981-4.095 5.57-4.271 1.007-.3 2.055-.016 2.807.76.493.508.592.755.656 1.631.093 1.293-.174 1.846-1.392 2.875-.5.424-1 .85-1.108.948-.11.097-1.388 1.168-2.843 2.381-1.455 1.213-2.949 2.48-3.32 2.818-1.486 1.351-2.24 1.768-3.194 1.767-.563 0-1.096-.123-1.436-.33zM-29.31 163.54c-.233-.044-.724-.278-1.09-.52-1.292-.855-1.22.177-1.22-17.255 0-17.485-.081-16.37 1.273-17.248l.739-.48H1.843l.583.398c.32.218.749.62.952.895.368.496.369.539.369 16.549v16.05l-.728.68c-.4.372-1.035.763-1.41.868-.672.186-29.949.246-30.919.063zm27.393-5.971c.162-.42.124-23.412-.039-23.667-.11-.176-2.636-.213-12.035-.177l-11.896.046-.045 11.818c-.025 6.5-.008 11.917.038 12.038.067.174 2.626.22 11.978.22 10.682 0 11.903-.028 12-.278zm-15.326-5.306c-.81-.427-1.194-.821-3.574-3.664-2.763-3.303-3.064-3.962-2.402-5.268.412-.814.773-1.178 1.451-1.461 1.509-.63 2.634-.144 4.26 1.84.63.769 1.289 1.49 1.462 1.6.272.174.751-.16 3.44-2.404 1.718-1.434 3.282-2.753 3.476-2.932.5-.46 1.15-.776 1.859-.904.806-.147 2.05.48 2.61 1.315.349.522.403.788.345 1.717-.078 1.27-.218 1.457-2.52 3.37a81.388 81.388 0 0 0-2.057 1.76c-.355.324-.874.76-1.153.972-.28.21-1.439 1.161-2.576 2.113-2.692 2.252-3.442 2.568-4.621 1.946zM-30.17 121.22c-.318-.158-.755-.534-.97-.836l-.391-.548v-16.052c0-15.773.006-16.06.353-16.533.194-.266.678-.644 1.076-.841.712-.353.95-.358 16.431-.311l15.71.047.677.546c.395.318.772.826.902 1.216.176.525.214 4.024.177 16.298-.047 15.166-.058 15.643-.391 16.08a5.006 5.006 0 0 1-.794.795c-.438.332-.912.344-16.326.384-14.356.037-15.93.014-16.454-.245zm28.272-17.436V91.791H-25.887l-.045 11.818c-.025 6.5-.008 11.918.039 12.04.067.175 2.57.212 12.04.176l11.955-.045zm-14.916 6.613c-.345-.06-.788-.222-.984-.362-.678-.483-4.976-5.613-5.417-6.465-.385-.746-.367-1.502.059-2.335.612-1.2 1.682-1.728 3.079-1.518.818.122 1.419.635 3.115 2.656.407.485.867.93 1.023.99.194.073 1.17-.639 3.105-2.264 4.438-3.73 4.732-3.93 5.776-3.93 1.065 0 1.89.454 2.438 1.343.308.498.368.815.309 1.63-.079 1.087-.362 1.598-1.29 2.325-.306.24-.986.806-1.513 1.26-1.732 1.49-4.651 3.939-5.19 4.353-.292.224-.809.665-1.15.98-1.28 1.18-2.185 1.54-3.36 1.337zm33.614 10.99c-.606-.146-1.454-1.11-1.677-1.906-.35-1.25.277-2.655 1.47-3.298.518-.279 2.071-.302 21.05-.309 19.186-.007 20.528.013 21.07.302.71.38 1.103.818 1.49 1.664.526 1.154-.081 2.68-1.332 3.345-.589.313-1.48.326-21.167.306-11.303-.011-20.71-.058-20.904-.105zm.259-13.905c-2.478-.763-2.772-4.066-.462-5.184.73-.354 1.021-.366 8.995-.366 8.954 0 8.928-.003 9.84.993.747.815.97 1.661.675 2.558-.348 1.054-.924 1.665-1.879 1.99-.705.24-1.932.278-8.596.268-6.128-.01-7.943-.065-8.573-.259zM80.1 85.918c.048-.078.033-.228-.034-.334-.246-.394-23.725-24.044-23.87-24.044-.176 0-.208 24.226-.033 24.4.168.17 23.833.147 23.937-.022z" style="fill:#00b3b3;fill-opacity:1;stroke-width:.176389" transform="translate(20.928 85.92) scale(.0604)"/></g></svg>