<svg xmlns="http://www.w3.org/2000/svg" xml:space="preserve" width="84.969" height="99.746" viewBox="0 0 22.481 26.391"><defs><filter id="b" width="1.039" height="1.147" x="-.019" y="-.073" style="color-interpolation-filters:sRGB"><feGaussianBlur stdDeviation=".102"/></filter><filter id="a" width="1.155" height="1.587" x="-.078" y="-.293" style="color-interpolation-filters:sRGB"><feGaussianBlur stdDeviation=".41"/></filter><filter id="d" width="1.064" height="1.064" x="-.032" y="-.032" style="color-interpolation-filters:sRGB"><feGaussianBlur stdDeviation=".206"/></filter><filter id="c" width="1.226" height="1.226" x="-.113" y="-.113" style="color-interpolation-filters:sRGB"><feGaussianBlur stdDeviation=".825"/></filter><filter id="e" width="1.204" height="1.229" x="-.102" y="-.115" style="color-interpolation-filters:sRGB"><feGaussianBlur stdDeviation="2.692"/></filter><filter id="f" width="1.051" height="1.057" x="-.026" y="-.029" style="color-interpolation-filters:sRGB"><feGaussianBlur stdDeviation=".673"/></filter></defs><g transform="translate(-12.066 -83.68)"><text xml:space="preserve" x="15.622" y="109.03" style="font-style:normal;font-weight:400;font-size:4.42734px;line-height:1.25;font-family:sans-serif;fill:#00b3b3;fill-opacity:1;stroke:none;stroke-width:.110684;filter:url(#a)" transform="translate(.92)"><tspan x="15.622" y="109.03" style="fill:#00b3b3;fill-opacity:1;stroke-width:.110684">HOME</tspan></text><text xml:space="preserve" x="15.622" y="109.03" style="font-style:normal;font-weight:400;font-size:4.42734px;line-height:1.25;font-family:sans-serif;fill:#00b3b3;fill-opacity:1;stroke:none;stroke-width:.110684;filter:url(#b)" transform="translate(.92)"><tspan x="15.622" y="109.03" style="fill:#00b3b3;fill-opacity:1;stroke-width:.110684">HOME</tspan></text><text xml:space="preserve" x="15.622" y="109.03" style="font-style:normal;font-weight:400;font-size:4.42734px;line-height:1.25;font-family:sans-serif;fill:#00b3b3;fill-opacity:1;stroke:none;stroke-width:.110684" transform="translate(.92)"><tspan x="15.622" y="109.03" style="fill:#00b3b3;fill-opacity:1;stroke-width:.110684">HOME</tspan></text><rect width="18.336" height="18.336" x="14.139" y="85.753" ry="2.761" style="fill:none;fill-opacity:1;stroke:#00b3b3;stroke-width:.184599;stroke-opacity:1;filter:url(#c)"/><rect width="18.336" height="18.336" x="14.139" y="85.753" ry="2.761" style="fill:none;fill-opacity:1;stroke:#00b3b3;stroke-width:.184599;stroke-opacity:1;filter:url(#d)"/><rect width="18.336" height="18.336" x="14.139" y="85.753" ry="2.761" style="fill:none;fill-opacity:1;stroke:#00b3b3;stroke-width:.184599;stroke-opacity:1"/><path d="M-62.174 179.182c-1.23-.313-2.362-1.244-3.023-2.487-.309-.579-.332-1.276-.38-11.333l-.05-10.715h-1.814c-2.217 0-3.36-.305-4.11-1.098-.78-.823-.99-1.316-1.005-2.352-.027-1.834-.194-1.658 10.284-10.812 5.292-4.625 11.748-10.272 14.345-12.551 2.597-2.279 5.058-4.325 5.468-4.546.856-.463 2.148-.447 3.159.038.322.155 1.78 1.332 3.238 2.616 1.46 1.284 7.73 6.788 13.935 12.23s11.575 10.22 11.934 10.617c1.528 1.693 1.128 4.101-.877 5.28-.766.45-1.008.495-3 .552l-2.168.062.024 10.08c.014 5.544-.034 10.398-.105 10.786-.262 1.42-1.193 2.653-2.552 3.376-.564.3-1.093.328-6.174.328-5.36 0-5.58-.013-6.261-.381-.832-.45-1.683-1.315-2.141-2.177-.296-.556-.338-1.208-.418-6.614-.06-3.948-.159-6.148-.292-6.438-.29-.635-1.285-1.508-1.982-1.74-.814-.272-8.747-.272-9.56 0-.7.233-1.694 1.107-1.98 1.74-.13.286-.233 2.543-.292 6.438-.088 5.72-.11 6.03-.474 6.703-.45.831-1.314 1.682-2.176 2.14-.557.297-1.122.332-5.82.361-2.863.018-5.442-.029-5.733-.103z" style="fill:#00b3b3;fill-opacity:1;stroke-width:.176389;filter:url(#e)" transform="matrix(.2011 0 0 .2011 31.534 64.532)"/><path d="M-62.174 179.182c-1.23-.313-2.362-1.244-3.023-2.487-.309-.579-.332-1.276-.38-11.333l-.05-10.715h-1.814c-2.217 0-3.36-.305-4.11-1.098-.78-.823-.99-1.316-1.005-2.352-.027-1.834-.194-1.658 10.284-10.812 5.292-4.625 11.748-10.272 14.345-12.551 2.597-2.279 5.058-4.325 5.468-4.546.856-.463 2.148-.447 3.159.038.322.155 1.78 1.332 3.238 2.616 1.46 1.284 7.73 6.788 13.935 12.23s11.575 10.22 11.934 10.617c1.528 1.693 1.128 4.101-.877 5.28-.766.45-1.008.495-3 .552l-2.168.062.024 10.08c.014 5.544-.034 10.398-.105 10.786-.262 1.42-1.193 2.653-2.552 3.376-.564.3-1.093.328-6.174.328-5.36 0-5.58-.013-6.261-.381-.832-.45-1.683-1.315-2.141-2.177-.296-.556-.338-1.208-.418-6.614-.06-3.948-.159-6.148-.292-6.438-.29-.635-1.285-1.508-1.982-1.74-.814-.272-8.747-.272-9.56 0-.7.233-1.694 1.107-1.98 1.74-.13.286-.233 2.543-.292 6.438-.088 5.72-.11 6.03-.474 6.703-.45.831-1.314 1.682-2.176 2.14-.557.297-1.122.332-5.82.361-2.863.018-5.442-.029-5.733-.103z" style="fill:#00b3b3;fill-opacity:1;stroke-width:.176389;filter:url(#f)" transform="matrix(.2011 0 0 .2011 31.534 64.532)"/><path d="M-62.174 179.182c-1.23-.313-2.362-1.244-3.023-2.487-.309-.579-.332-1.276-.38-11.333l-.05-10.715h-1.814c-2.217 0-3.36-.305-4.11-1.098-.78-.823-.99-1.316-1.005-2.352-.027-1.834-.194-1.658 10.284-10.812 5.292-4.625 11.748-10.272 14.345-12.551 2.597-2.279 5.058-4.325 5.468-4.546.856-.463 2.148-.447 3.159.038.322.155 1.78 1.332 3.238 2.616 1.46 1.284 7.73 6.788 13.935 12.23s11.575 10.22 11.934 10.617c1.528 1.693 1.128 4.101-.877 5.28-.766.45-1.008.495-3 .552l-2.168.062.024 10.08c.014 5.544-.034 10.398-.105 10.786-.262 1.42-1.193 2.653-2.552 3.376-.564.3-1.093.328-6.174.328-5.36 0-5.58-.013-6.261-.381-.832-.45-1.683-1.315-2.141-2.177-.296-.556-.338-1.208-.418-6.614-.06-3.948-.159-6.148-.292-6.438-.29-.635-1.285-1.508-1.982-1.74-.814-.272-8.747-.272-9.56 0-.7.233-1.694 1.107-1.98 1.74-.13.286-.233 2.543-.292 6.438-.088 5.72-.11 6.03-.474 6.703-.45.831-1.314 1.682-2.176 2.14-.557.297-1.122.332-5.82.361-2.863.018-5.442-.029-5.733-.103z" style="fill:#00b3b3;fill-opacity:1;stroke-width:.176389" transform="matrix(.2011 0 0 .2011 31.534 64.532)"/></g></svg>